<svg width="16" height="16" viewBox="0 0 16 16" fill="none" xmlns="http://www.w3.org/2000/svg">
<g clip-path="url(#clip0_45_311)">
<path d="M5.49775 8.93737H3.85825C3.79611 8.93737 3.73651 8.91268 3.69257 8.86874C3.64862 8.8248 3.62394 8.7652 3.62394 8.70306V8.23443C3.62394 8.20366 3.63 8.17319 3.64177 8.14477C3.65355 8.11634 3.67081 8.09051 3.69257 8.06875C3.71432 8.04699 3.74015 8.02973 3.76858 8.01796C3.79701 8.00618 3.82748 8.00012 3.85825 8.00012H5.49775V6.12495H3.85825C3.79611 6.12495 3.73651 6.10027 3.69257 6.05632C3.64862 6.01238 3.62394 5.95278 3.62394 5.89064V5.42202C3.62376 5.39113 3.62969 5.36052 3.64138 5.33193C3.65308 5.30335 3.67031 5.27736 3.69208 5.25546C3.71386 5.23355 3.73975 5.21617 3.76827 5.20431C3.79678 5.19245 3.82737 5.18635 3.85825 5.18635H5.49775V3.31254H3.85825C3.79657 3.31254 3.73738 3.28823 3.69352 3.24487C3.64966 3.20152 3.62465 3.14261 3.62394 3.08094V2.61232C3.62394 2.55018 3.64862 2.49058 3.69257 2.44664C3.73651 2.40269 3.79611 2.37801 3.85825 2.37801H5.49775V1.43737C5.49757 1.18897 5.39886 0.950782 5.22328 0.775073C5.0477 0.599364 4.80958 0.500482 4.56118 0.500122L1.74877 0.500122C1.50025 0.500302 1.26196 0.599105 1.08623 0.774834C0.910506 0.950562 0.811703 1.18885 0.811523 1.43737V14.5629C0.816994 14.6406 0.832518 14.7173 0.857707 14.7911L5.49775 10.1497V8.93737ZM14.8702 10.8125H13.933V12.4534C13.933 12.5155 13.9083 12.5751 13.8643 12.6191C13.8204 12.663 13.7608 12.6877 13.6986 12.6877H13.23C13.1679 12.6877 13.1083 12.663 13.0643 12.6191C13.0204 12.5751 12.9957 12.5155 12.9957 12.4534V10.8125H11.1239V12.4534C11.1239 12.5155 11.0993 12.5751 11.0553 12.6191C11.0114 12.663 10.9518 12.6877 10.8896 12.6877H10.421C10.39 12.6881 10.3592 12.6823 10.3305 12.6707C10.3018 12.659 10.2756 12.6418 10.2536 12.62C10.2315 12.5983 10.214 12.5723 10.2021 12.5437C10.1901 12.5151 10.184 12.4844 10.184 12.4534V10.8125H8.31152V12.4534C8.31152 12.5155 8.28684 12.5751 8.2429 12.6191C8.19895 12.663 8.13936 12.6877 8.07721 12.6877H7.60859C7.57782 12.6877 7.54735 12.6816 7.51892 12.6699C7.49049 12.6581 7.46466 12.6408 7.44291 12.6191C7.42115 12.5973 7.40389 12.5715 7.39211 12.5431C7.38034 12.5146 7.37428 12.4842 7.37428 12.4534V10.8125H6.16197L1.52057 15.4539C1.59433 15.4791 1.67103 15.4946 1.74877 15.5001H14.8743C15.1228 15.4999 15.3611 15.4011 15.5368 15.2254C15.7125 15.0497 15.8113 14.8114 15.8115 14.5629V11.7498C15.8113 11.5013 15.7125 11.263 15.5368 11.0872C15.3611 10.9115 15.1228 10.8127 14.8743 10.8125H14.8702Z" fill="#EEA820"/>
</g>
<defs>
<clipPath id="clip0_45_311">
<rect width="15" height="15" fill="white" transform="translate(0.811523 0.5)"/>
</clipPath>
</defs>
</svg>
