<svg width="16" height="15" viewBox="0 0 16 15" fill="none" xmlns="http://www.w3.org/2000/svg">
<path d="M15.1629 4.40753C15.1269 3.60889 14.9978 3.06245 14.8148 2.58507C14.6227 2.09267 14.3677 1.67234 13.9506 1.25801C13.5335 0.843675 13.1164 0.582466 12.6243 0.393315C12.1473 0.207166 11.6011 0.0810649 10.803 0.045036C10.0018 0.0090072 9.74677 0 7.71237 0C5.67496 0 5.41991 0.0090072 4.62175 0.045036C3.82359 0.0810649 3.27748 0.210168 2.80038 0.393315C2.30529 0.585468 1.8852 0.840672 1.47112 1.25801C1.05704 1.67534 0.795984 2.09267 0.606946 2.58507C0.423909 3.06245 0.294883 3.60889 0.258876 4.40753C0.222869 5.20917 0.213867 5.46437 0.213867 7.5C0.213867 9.53863 0.222869 9.79383 0.258876 10.5925C0.294883 11.3911 0.423909 11.9376 0.606946 12.4149C0.798984 12.9073 1.05404 13.3277 1.47112 13.742C1.8852 14.1593 2.30529 14.4175 2.79738 14.6067C3.27448 14.7928 3.82059 14.9189 4.61875 14.955C5.41991 14.991 5.67496 15 7.70937 15C9.74677 15 10.0018 14.991 10.8 14.955C11.5981 14.9189 12.1443 14.7898 12.6213 14.6067C13.1134 14.4145 13.5335 14.1593 13.9476 13.742C14.3617 13.3247 14.6227 12.9073 14.8118 12.4149C14.9978 11.9376 15.1238 11.3911 15.1599 10.5925C15.1959 9.79083 15.2049 9.53563 15.2049 7.5C15.2049 5.46437 15.1989 5.20617 15.1629 4.40753ZM13.8156 10.5324C13.7826 11.265 13.6596 11.6643 13.5575 11.9255C13.4225 12.2738 13.2575 12.526 12.9934 12.7902C12.7294 13.0544 12.4803 13.2136 12.1293 13.3547C11.8652 13.4568 11.4661 13.5799 10.737 13.6129C9.94781 13.6489 9.71077 13.6579 7.70637 13.6579C5.70196 13.6579 5.46492 13.6489 4.67576 13.6129C3.94361 13.5799 3.54453 13.4568 3.28348 13.3547C2.93541 13.2196 2.68336 13.0544 2.41931 12.7902C2.15526 12.526 1.99622 12.2768 1.8552 11.9255C1.75318 11.6613 1.63015 11.262 1.59714 10.5324C1.56114 9.74279 1.55213 9.5056 1.55213 7.5C1.55213 5.4944 1.56114 5.25721 1.59714 4.46757C1.63015 3.73499 1.75318 3.33567 1.8552 3.07446C1.99022 2.72618 2.15526 2.47398 2.41931 2.20977C2.68336 1.94556 2.93241 1.78643 3.28348 1.64532C3.54753 1.54323 3.94661 1.42014 4.67576 1.38711C5.46492 1.35108 5.70196 1.34207 7.70637 1.34207C9.71077 1.34207 9.94781 1.35108 10.737 1.38711C11.4691 1.42014 11.8682 1.54323 12.1293 1.64532C12.4773 1.78042 12.7294 1.94556 12.9934 2.20977C13.2575 2.47398 13.4165 2.72318 13.5575 3.07446C13.6596 3.33867 13.7826 3.73799 13.8156 4.46757C13.8516 5.25721 13.8606 5.4944 13.8606 7.5C13.8606 9.5056 13.8486 9.74279 13.8156 10.5324Z" fill="url(#paint0_linear_86_349)"/>
<path d="M7.70629 3.6449C5.57586 3.6449 3.85352 5.37128 3.85352 7.49998C3.85352 9.63169 5.57886 11.3551 7.70629 11.3551C9.83371 11.3551 11.5591 9.62568 11.5591 7.49998C11.5591 5.36828 9.83671 3.6449 7.70629 3.6449ZM7.70629 10.001C6.32601 10.001 5.20679 8.88109 5.20679 7.49998C5.20679 6.11888 6.32601 4.99898 7.70629 4.99898C9.08656 4.99898 10.2058 6.11888 10.2058 7.49998C10.2058 8.88109 9.08656 10.001 7.70629 10.001Z" fill="url(#paint1_linear_86_349)"/>
<path d="M11.7093 4.3955C12.2064 4.3955 12.6094 3.99223 12.6094 3.49478C12.6094 2.99732 12.2064 2.59406 11.7093 2.59406C11.2121 2.59406 10.8091 2.99732 10.8091 3.49478C10.8091 3.99223 11.2121 4.3955 11.7093 4.3955Z" fill="#BC30A0"/>
<path d="M0.205078 7.5C0.205078 9.53863 0.21408 9.79383 0.250087 10.5925C0.286094 11.3911 0.41512 11.9376 0.598157 12.4149C0.790195 12.9073 1.04525 13.3277 1.46233 13.742C1.87641 14.1563 2.2965 14.4175 2.78859 14.6067C3.26569 14.7928 3.8118 14.9189 4.60996 14.955C5.41112 14.991 5.66617 15 7.70058 15C9.73798 15 9.99304 14.991 10.7912 14.955C11.5894 14.9189 12.1355 14.7898 12.6126 14.6067C13.1047 14.4145 13.5247 14.1593 13.9388 13.742C14.3529 13.3277 14.614 12.9073 14.803 12.4149C14.989 11.9376 15.1151 11.3911 15.1511 10.5925C15.1871 9.79083 15.1961 9.53563 15.1961 7.5C15.1961 5.46137 15.1871 5.20617 15.1511 4.40753C15.1151 3.60889 14.986 3.06245 14.803 2.58507C14.611 2.09267 14.3559 1.67234 13.9388 1.25801C13.5277 0.840672 13.1077 0.582466 12.6156 0.393315C12.1385 0.207166 11.5924 0.0810649 10.7942 0.045036C9.99304 0.0090072 9.73798 0 7.70358 0C5.66617 0 5.41112 0.0090072 4.61296 0.045036C3.8148 0.0810649 3.26869 0.210168 2.7916 0.393315C2.2995 0.585468 1.87941 0.840672 1.46533 1.25801C1.05125 1.67534 0.790195 2.09267 0.601157 2.58507C0.41512 3.06245 0.286094 3.60889 0.250087 4.40753C0.21408 5.20617 0.205078 5.46137 0.205078 7.5ZM1.55835 7.5C1.55835 5.4974 1.56735 5.25721 1.60336 4.46757C1.63636 3.73499 1.75939 3.33567 1.86141 3.07446C1.99644 2.72618 2.16147 2.47398 2.42552 2.20977C2.68957 1.94556 2.93862 1.78643 3.2897 1.64532C3.55375 1.54323 3.95283 1.42014 4.68197 1.38711C5.47113 1.35108 5.70818 1.34207 7.71258 1.34207C9.71698 1.34207 9.95403 1.35108 10.7432 1.38711C11.4753 1.42014 11.8744 1.54323 12.1355 1.64532C12.4835 1.78042 12.7356 1.94556 12.9996 2.20977C13.2637 2.47398 13.4227 2.72318 13.5638 3.07446C13.6658 3.33867 13.7888 3.73799 13.8218 4.46757C13.8578 5.25721 13.8668 5.4944 13.8668 7.5C13.8668 9.5056 13.8578 9.74279 13.8218 10.5324C13.7888 11.265 13.6658 11.6643 13.5638 11.9255C13.4287 12.2738 13.2637 12.526 12.9996 12.7902C12.7356 13.0544 12.4865 13.2136 12.1355 13.3547C11.8714 13.4568 11.4723 13.5799 10.7432 13.6129C9.95403 13.6489 9.71698 13.6579 7.71258 13.6579C5.70818 13.6579 5.47113 13.6489 4.68197 13.6129C3.94983 13.5799 3.55075 13.4568 3.2897 13.3547C2.94163 13.2196 2.68957 13.0544 2.42552 12.7902C2.16147 12.526 2.00244 12.2768 1.86141 11.9255C1.75939 11.6613 1.63636 11.262 1.60336 10.5324C1.56435 9.74279 1.55835 9.5026 1.55835 7.5Z" fill="url(#paint2_linear_86_349)"/>
<defs>
<linearGradient id="paint0_linear_86_349" x1="12.8895" y1="1.147" x2="2.03801" y2="14.4423" gradientUnits="userSpaceOnUse">
<stop stop-color="#AE3DAE"/>
<stop offset="0.0468721" stop-color="#B23BA6"/>
<stop offset="0.1216" stop-color="#BD368E"/>
<stop offset="0.2148" stop-color="#CE2E69"/>
<stop offset="0.3216" stop-color="#E62335"/>
<stop offset="0.418" stop-color="#FF1800"/>
</linearGradient>
<linearGradient id="paint1_linear_86_349" x1="9.54369" y1="4.40802" x2="5.60159" y2="11.0321" gradientUnits="userSpaceOnUse">
<stop stop-color="#E12F6A"/>
<stop offset="0.1705" stop-color="#EA3751"/>
<stop offset="0.3563" stop-color="#F13D3E"/>
<stop offset="0.5467" stop-color="#F64133"/>
<stop offset="0.7469" stop-color="#F7422F"/>
<stop offset="0.7946" stop-color="#F74C2F"/>
<stop offset="0.8743" stop-color="#F7652F"/>
<stop offset="0.9757" stop-color="#F78F2E"/>
<stop offset="1" stop-color="#F79A2E"/>
</linearGradient>
<linearGradient id="paint2_linear_86_349" x1="11.1039" y1="-0.617519" x2="4.46376" y2="15.2102" gradientUnits="userSpaceOnUse">
<stop offset="0.2341" stop-color="#9E35A5" stop-opacity="0"/>
<stop offset="0.4512" stop-color="#D42F7F" stop-opacity="0.5"/>
<stop offset="0.7524" stop-color="#F7772E"/>
<stop offset="0.9624" stop-color="#FEF780"/>
</linearGradient>
</defs>
</svg>
