<svg width="16" height="15" viewBox="0 0 16 15" fill="none" xmlns="http://www.w3.org/2000/svg">
<g clip-path="url(#clip0_86_341)">
<path d="M0.205078 2.00106C0.205078 1.51842 0.374002 1.12026 0.711835 0.806558C1.04967 0.492847 1.48887 0.335999 2.0294 0.335999C2.5603 0.335999 2.98982 0.490429 3.31801 0.799319C3.65585 1.11785 3.82477 1.5329 3.82477 2.04449C3.82477 2.50781 3.66068 2.8939 3.33249 3.20279C2.99466 3.52133 2.55064 3.68059 2.00045 3.68059H1.98597C1.45507 3.68059 1.02555 3.52133 0.697356 3.20279C0.369166 2.88426 0.205078 2.48368 0.205078 2.00106ZM0.393302 14.67V4.99816H3.60759V14.67H0.393302ZM5.38848 14.67H8.60276V9.2694C8.60276 8.93155 8.64138 8.67093 8.71859 8.48754C8.85372 8.15935 9.05884 7.88184 9.33394 7.65501C9.60904 7.42817 9.95411 7.31476 10.3692 7.31476C11.4503 7.31476 11.9908 8.04352 11.9908 9.50106V14.67H15.2051V9.12461C15.2051 7.69603 14.8672 6.61254 14.1916 5.87413C13.5159 5.13571 12.623 4.7665 11.513 4.7665C10.2678 4.7665 9.29774 5.30221 8.60276 6.37364V6.4026H8.58828L8.60276 6.37364V4.99816H5.38848C5.40778 5.30704 5.41743 6.26746 5.41743 7.87943C5.41743 9.4914 5.40778 11.7549 5.38848 14.67Z" fill="#0A66C2"/>
</g>
<defs>
<clipPath id="clip0_86_341">
<rect width="15" height="15" fill="white" transform="translate(0.205078)"/>
</clipPath>
</defs>
</svg>
