<svg width="111" height="75" viewBox="0 0 111 75" fill="none" xmlns="http://www.w3.org/2000/svg">
<path d="M5.93211 64.0847H1.50134C1.27057 64.0847 1.0398 64.0617 0.80903 64.0386C0.647492 64.0155 0.485953 63.9463 0.347491 63.854C0.232107 63.7617 0.139799 63.6463 0.0936449 63.5309C0.047491 63.3694 0.0244141 63.2078 0.0244141 63.0463V61.9155H0.624415V62.8386C0.624415 62.954 0.647492 63.0924 0.670569 63.2078C0.716722 63.3001 0.762876 63.3694 0.855184 63.4155C0.970569 63.4617 1.08595 63.5078 1.22442 63.5078C1.38595 63.5309 1.57057 63.5309 1.80134 63.5309H5.33211V61.3155H5.93211V64.0847ZM2.17057 60.4847C2.17057 60.2771 2.35519 60.0924 2.56288 60.0924C2.65519 60.0924 2.77057 60.1386 2.8398 60.2078C2.97826 60.3694 2.95519 60.6232 2.79365 60.7617C2.65519 60.8771 2.42442 60.8771 2.28595 60.7617C2.19365 60.6694 2.14749 60.5771 2.17057 60.4847ZM3.11672 60.4847C3.11672 60.3924 3.16288 60.2771 3.23211 60.2078C3.39365 60.0463 3.62442 60.0463 3.78596 60.2078C3.94749 60.3694 3.94749 60.6001 3.78596 60.7617C3.62442 60.9232 3.39365 60.9232 3.23211 60.7617C3.1398 60.6694 3.11672 60.5771 3.11672 60.4847Z" fill="#313131" fill-opacity="0.6"/>
<path d="M7.54727 58.8696V64.085H6.94727V58.8696H7.54727Z" fill="#313131" fill-opacity="0.6"/>
<path d="M10.9631 63.2768C10.9631 63.4845 10.8938 63.6921 10.7323 63.8537C10.5477 64.0152 10.2938 64.1075 10.04 64.0845H8.28613V63.4845H9.97075C10.1323 63.4845 10.2477 63.4614 10.2938 63.4152C10.34 63.3691 10.3631 63.2998 10.3631 63.2537C10.3631 63.2075 10.3631 63.1614 10.34 63.0922C10.2938 62.9998 10.2477 62.9075 10.2015 62.8383C10.1323 62.7229 10.0169 62.5614 9.87844 62.3537C9.73998 62.146 9.53229 61.846 9.30152 61.4768L9.85536 61.1306C10.04 61.4768 10.2246 61.7537 10.3631 61.9845C10.5015 62.2152 10.6169 62.3998 10.7092 62.5614C10.7784 62.6998 10.8477 62.8383 10.9169 62.9768C10.94 63.046 10.9631 63.1614 10.9631 63.2768Z" fill="#313131" fill-opacity="0.6"/>
<path d="M12.4389 58.8694V64.0848H11.8389V58.8694H12.4389Z" fill="#313131" fill-opacity="0.6"/>
<path d="M15.2089 64.0853C15.0704 64.0853 14.932 64.0622 14.8166 63.9699C14.7243 63.9007 14.632 63.8084 14.5858 63.7161C14.5858 64.0161 14.5628 64.3161 14.5166 64.593C14.4935 64.8007 14.4012 65.0084 14.2858 65.1699C14.1704 65.3315 13.9858 65.4469 13.8012 65.493C13.5474 65.5622 13.2704 65.6084 13.0166 65.5853V65.0084C13.2012 65.0084 13.3858 64.9853 13.5704 64.9392C13.6858 64.893 13.8012 64.8007 13.8474 64.6853C13.9166 64.5469 13.9628 64.4084 13.9628 64.2469C13.9628 64.0622 13.9858 63.8545 13.9858 63.6007V61.6392H14.5858V62.6776C14.5858 62.8853 14.632 63.093 14.7243 63.2545C14.8397 63.4161 15.0243 63.4853 15.232 63.4622C15.3704 63.4392 15.5089 63.5315 15.532 63.6699C15.532 63.693 15.532 63.7161 15.532 63.7392C15.532 63.8315 15.5089 63.9238 15.4628 63.993C15.3704 64.0622 15.3012 64.0853 15.2089 64.0853ZM13.8935 60.0469C13.8935 59.9545 13.9397 59.8392 14.0089 59.7699C14.0781 59.7007 14.1704 59.6545 14.2858 59.6545C14.3781 59.6545 14.4935 59.7007 14.5628 59.7699C14.632 59.8392 14.6781 59.9315 14.6781 60.0469C14.6781 60.2545 14.5166 60.4392 14.2858 60.4392C14.0551 60.4392 13.8935 60.2545 13.8935 60.0469Z" fill="#313131" fill-opacity="0.6"/>
<path d="M15.2082 64.085C15.0697 64.1081 14.9313 64.0158 14.9082 63.8773C14.9082 63.8542 14.9082 63.8311 14.9082 63.8081C14.9082 63.7157 14.9313 63.6234 14.9774 63.5542C15.0467 63.5081 15.1159 63.485 15.2082 63.485H16.2928C16.4313 63.4619 16.5697 63.5542 16.5928 63.6927C16.5928 63.7157 16.5928 63.7388 16.5928 63.7619C16.5928 63.8542 16.5697 63.9465 16.5236 64.0158C16.4544 64.0619 16.3851 64.085 16.2928 64.085H15.2082Z" fill="#313131" fill-opacity="0.6"/>
<path d="M16.2922 64.085C16.1537 64.1081 16.0153 64.0158 15.9922 63.8773C15.9922 63.8542 15.9922 63.8311 15.9922 63.8081C15.9922 63.7157 16.0153 63.6234 16.0614 63.5542C16.1306 63.5081 16.1999 63.485 16.2922 63.485H17.3768C17.5153 63.4619 17.6537 63.5542 17.6768 63.6927C17.6768 63.7157 17.6768 63.7388 17.6768 63.7619C17.6768 63.8542 17.6537 63.9465 17.6076 64.0158C17.5383 64.0619 17.4691 64.085 17.3768 64.085H16.2922Z" fill="#313131" fill-opacity="0.6"/>
<path d="M17.3781 64.0852C17.2397 64.1083 17.1012 64.016 17.0781 63.8775C17.0781 63.8545 17.0781 63.8314 17.0781 63.8083C17.0781 63.716 17.1012 63.6237 17.1474 63.5545C17.2166 63.5083 17.2858 63.4852 17.3781 63.4852H18.4627C18.6012 63.4621 18.7397 63.5545 18.7627 63.6929C18.7627 63.716 18.7627 63.7391 18.7627 63.7621C18.7627 63.8545 18.7397 63.9468 18.6935 64.016C18.6243 64.0622 18.555 64.0852 18.4627 64.0852H17.3781Z" fill="#313131" fill-opacity="0.6"/>
<path d="M18.4631 64.0852C18.3246 64.1083 18.1862 64.016 18.1631 63.8775C18.1631 63.8545 18.1631 63.8314 18.1631 63.8083C18.1631 63.716 18.1862 63.6237 18.2323 63.5545C18.3015 63.5083 18.3708 63.4852 18.4631 63.4852H19.5477C19.6862 63.4621 19.8246 63.5545 19.8477 63.6929C19.8477 63.716 19.8477 63.7391 19.8477 63.7621C19.8477 63.8545 19.8246 63.9468 19.7785 64.016C19.7092 64.0622 19.64 64.0852 19.5477 64.0852H18.4631Z" fill="#313131" fill-opacity="0.6"/>
<path d="M19.5236 64.0852C19.3852 64.1083 19.2467 64.016 19.2236 63.8775C19.2236 63.8545 19.2236 63.8314 19.2236 63.8083C19.2236 63.716 19.2467 63.6237 19.2929 63.5545C19.3621 63.5083 19.4313 63.4852 19.5236 63.4852H20.6082C20.7467 63.4621 20.8852 63.5545 20.9082 63.6929C20.9082 63.716 20.9082 63.7391 20.9082 63.7621C20.9082 63.8545 20.8852 63.9468 20.839 64.016C20.7698 64.0622 20.7006 64.0852 20.6082 64.0852H19.5236Z" fill="#313131" fill-opacity="0.6"/>
<path d="M20.6076 64.0852C20.4692 64.1083 20.3307 64.016 20.3076 63.8775C20.3076 63.8545 20.3076 63.8314 20.3076 63.8083C20.3076 63.716 20.3307 63.6237 20.3768 63.5545C20.4461 63.5083 20.5153 63.4852 20.6076 63.4852H21.6922C21.8307 63.4621 21.9692 63.5545 21.9922 63.6929C21.9922 63.716 21.9922 63.7391 21.9922 63.7621C21.9922 63.8545 21.9692 63.9468 21.923 64.016C21.8538 64.0622 21.7845 64.0852 21.6922 64.0852H20.6076Z" fill="#313131" fill-opacity="0.6"/>
<path d="M21.6936 64.0852C21.5551 64.1083 21.4166 64.016 21.3936 63.8775C21.3936 63.8545 21.3936 63.8314 21.3936 63.8083C21.3936 63.716 21.4166 63.6237 21.4628 63.5545C21.532 63.5083 21.6012 63.4852 21.6936 63.4852H22.7782C22.9166 63.4621 23.0551 63.5545 23.0782 63.6929C23.0782 63.716 23.0782 63.7391 23.0782 63.7621C23.0782 63.8545 23.0551 63.9468 23.0089 64.016C22.9397 64.0622 22.8705 64.0852 22.7782 64.0852H21.6936Z" fill="#313131" fill-opacity="0.6"/>
<path d="M22.7785 64.085C22.6401 64.1081 22.5016 64.0158 22.4785 63.8773C22.4785 63.8542 22.4785 63.8311 22.4785 63.8081C22.4785 63.7157 22.5016 63.6234 22.5477 63.5542C22.617 63.5081 22.6862 63.485 22.7785 63.485H23.8631C24.0016 63.4619 24.1401 63.5542 24.1631 63.6927C24.1631 63.7157 24.1631 63.7388 24.1631 63.7619C24.1631 63.8542 24.1401 63.9465 24.0939 64.0158C24.0247 64.0619 23.9554 64.085 23.8631 64.085H22.7785Z" fill="#313131" fill-opacity="0.6"/>
<path d="M23.8615 64.085C23.7231 64.1081 23.5846 64.0158 23.5615 63.8773C23.5615 63.8542 23.5615 63.8311 23.5615 63.8081C23.5615 63.7157 23.5846 63.6234 23.6308 63.5542C23.7 63.5081 23.7692 63.485 23.8615 63.485H24.9461C25.0846 63.4619 25.2231 63.5542 25.2461 63.6927C25.2461 63.7157 25.2461 63.7388 25.2461 63.7619C25.2461 63.8542 25.2231 63.9465 25.1769 64.0158C25.1077 64.0619 25.0384 64.085 24.9461 64.085H23.8615Z" fill="#313131" fill-opacity="0.6"/>
<path d="M24.9475 64.0852C24.809 64.1083 24.6705 64.016 24.6475 63.8775C24.6475 63.8545 24.6475 63.8314 24.6475 63.8083C24.6475 63.716 24.6705 63.6237 24.7167 63.5545C24.7859 63.5083 24.8552 63.4852 24.9475 63.4852H26.0321C26.1705 63.4621 26.309 63.5545 26.3321 63.6929C26.3321 63.716 26.3321 63.7391 26.3321 63.7621C26.3321 63.8545 26.309 63.9468 26.2628 64.016C26.1936 64.0622 26.1244 64.0852 26.0321 64.0852H24.9475Z" fill="#313131" fill-opacity="0.6"/>
<path d="M26.008 64.085C25.8695 64.1081 25.7311 64.0158 25.708 63.8773C25.708 63.8542 25.708 63.8311 25.708 63.8081C25.708 63.7157 25.7311 63.6234 25.7772 63.5542C25.8465 63.5081 25.9157 63.485 26.008 63.485H27.0926C27.2311 63.4619 27.3695 63.5542 27.3926 63.6927C27.3926 63.7157 27.3926 63.7388 27.3926 63.7619C27.3926 63.8542 27.3695 63.9465 27.3234 64.0158C27.2542 64.0619 27.1849 64.085 27.0926 64.085H26.008Z" fill="#313131" fill-opacity="0.6"/>
<path d="M27.092 64.0852C26.9535 64.1083 26.8151 64.016 26.792 63.8775C26.792 63.8545 26.792 63.8314 26.792 63.8083C26.792 63.716 26.8151 63.6237 26.8612 63.5545C26.9305 63.5083 26.9997 63.4852 27.092 63.4852H28.1766C28.3151 63.4621 28.4535 63.5545 28.4766 63.6929C28.4766 63.716 28.4766 63.7391 28.4766 63.7621C28.4766 63.8545 28.4535 63.9468 28.4074 64.016C28.3381 64.0622 28.2689 64.0852 28.1766 64.0852H27.092Z" fill="#313131" fill-opacity="0.6"/>
<path d="M28.177 64.0852C28.0385 64.1083 27.9 64.016 27.877 63.8775C27.877 63.8545 27.877 63.8314 27.877 63.8083C27.877 63.716 27.9 63.6237 27.9462 63.5545C28.0154 63.5083 28.0846 63.4852 28.177 63.4852H29.2616C29.4 63.4621 29.5385 63.5545 29.5616 63.6929C29.5616 63.716 29.5616 63.7391 29.5616 63.7621C29.5616 63.8545 29.5385 63.9468 29.4923 64.016C29.4231 64.0622 29.3539 64.0852 29.2616 64.0852H28.177Z" fill="#313131" fill-opacity="0.6"/>
<path d="M29.2619 64.0852C29.1235 64.1083 28.985 64.016 28.9619 63.8775C28.9619 63.8545 28.9619 63.8314 28.9619 63.8083C28.9619 63.716 28.985 63.6237 29.0311 63.5545C29.1004 63.5083 29.1696 63.4852 29.2619 63.4852H30.3465C30.485 63.4621 30.6235 63.5545 30.6465 63.6929C30.6465 63.716 30.6465 63.7391 30.6465 63.7621C30.6465 63.8545 30.6235 63.9468 30.5773 64.016C30.5081 64.0622 30.4388 64.0852 30.3465 64.0852H29.2619Z" fill="#313131" fill-opacity="0.6"/>
<path d="M30.3469 64.085C30.2084 64.1081 30.07 64.0158 30.0469 63.8773C30.0469 63.8542 30.0469 63.8311 30.0469 63.8081C30.0469 63.7157 30.07 63.6234 30.1161 63.5542C30.1853 63.5081 30.2546 63.485 30.3469 63.485H31.4315C31.57 63.4619 31.7084 63.5542 31.7315 63.6927C31.7315 63.7157 31.7315 63.7388 31.7315 63.7619C31.7315 63.8542 31.7084 63.9465 31.6623 64.0158C31.593 64.0619 31.5238 64.085 31.4315 64.085H30.3469Z" fill="#313131" fill-opacity="0.6"/>
<path d="M31.4074 64.085C31.269 64.1081 31.1305 64.0158 31.1074 63.8773C31.1074 63.8542 31.1074 63.8311 31.1074 63.8081C31.1074 63.7157 31.1305 63.6234 31.1767 63.5542C31.2459 63.5081 31.3151 63.485 31.4074 63.485H32.492C32.6305 63.4619 32.769 63.5542 32.792 63.6927C32.792 63.7157 32.792 63.7388 32.792 63.7619C32.792 63.8542 32.769 63.9465 32.7228 64.0158C32.6536 64.0619 32.5843 64.085 32.492 64.085H31.4074Z" fill="#313131" fill-opacity="0.6"/>
<path d="M36.9709 64.085C36.8094 64.085 36.6478 64.0619 36.4863 63.9696C36.3478 63.8773 36.2324 63.7619 36.1632 63.6004V63.5773C36.0709 63.7619 35.9324 63.9004 35.7478 64.0158C35.5401 64.1312 35.3094 64.1773 35.0786 64.1773C34.8478 64.1773 34.6171 64.1312 34.3863 64.0619C34.1324 63.9696 33.8786 63.8312 33.6709 63.6696C33.6247 63.7619 33.5555 63.8312 33.4863 63.9004C33.4171 63.9466 33.3478 63.9927 33.2786 64.0158C33.2094 64.0389 33.1171 64.0619 33.0478 64.0619C32.9555 64.0619 32.8863 64.085 32.794 64.0619H32.4709C32.3324 64.085 32.194 63.9927 32.1709 63.8542C32.1709 63.8312 32.1709 63.8081 32.1709 63.785C32.1709 63.6927 32.194 63.6004 32.2401 63.5312C32.3094 63.485 32.3786 63.4619 32.4709 63.4619H32.7709C32.8401 63.4619 32.8863 63.4619 32.9555 63.4389C33.0247 63.4158 33.094 63.3927 33.1401 63.3466C33.2094 63.2773 33.2786 63.2312 33.3247 63.1389C33.394 63.0235 33.4632 62.9081 33.4863 62.7927C33.5786 62.5389 33.694 62.285 33.8324 62.0312C33.9247 61.8696 34.0632 61.7081 34.2017 61.5927C34.3171 61.5004 34.4555 61.4312 34.594 61.385C34.7324 61.3619 34.8478 61.3389 34.9863 61.3389C35.1709 61.3389 35.3324 61.3619 35.494 61.4543C35.6555 61.5235 35.794 61.6158 35.9094 61.7542C36.0248 61.8927 36.1171 62.0542 36.1863 62.2158C36.2555 62.4004 36.2786 62.6081 36.2786 62.8158C36.2786 62.8389 36.2786 62.885 36.2786 62.9081C36.2786 62.9312 36.2786 62.9773 36.2786 63.0004C36.3247 63.1389 36.394 63.2542 36.4863 63.3466C36.6248 63.4389 36.7632 63.485 36.9248 63.4619C37.0632 63.4389 37.2017 63.5312 37.2248 63.6696C37.2248 63.6927 37.2248 63.7158 37.2248 63.7389C37.2248 63.8312 37.2017 63.9235 37.1555 63.9927C37.1555 64.0619 37.0632 64.085 36.9709 64.085ZM35.7247 62.7927C35.7247 62.6773 35.7017 62.585 35.6786 62.4696C35.6555 62.3773 35.6094 62.285 35.5401 62.1927C35.4709 62.1235 35.4017 62.0543 35.3094 62.0081C35.2171 61.9619 35.1017 61.9389 35.0094 61.9389C34.8017 61.9389 34.594 62.0542 34.4555 62.2158C34.2247 62.4927 34.0632 62.8158 33.9709 63.1619C34.1324 63.2773 34.3171 63.3696 34.5017 63.4389C34.6863 63.5081 34.8709 63.5312 35.0555 63.5543C35.2401 63.5543 35.4017 63.5081 35.5401 63.3927C35.6786 63.2312 35.7478 63.0004 35.7247 62.7927Z" fill="#313131" fill-opacity="0.6"/>
<path d="M36.9934 64.0845C36.8549 64.1076 36.7164 64.0153 36.6934 63.8768C36.6934 63.8538 36.6934 63.8307 36.6934 63.8076C36.6934 63.7153 36.7164 63.623 36.7626 63.5538C36.8318 63.5076 36.9011 63.4845 36.9934 63.4845H37.5703C37.6395 63.4845 37.7318 63.4845 37.8011 63.4614C37.8703 63.4614 37.9164 63.4384 37.9626 63.3922C38.0087 63.3461 38.0549 63.2999 38.078 63.2307C38.1011 63.1384 38.1241 63.0461 38.1241 62.9538V58.8691H38.7241V62.6768C38.7241 62.8845 38.7703 63.0922 38.8626 63.2538C38.978 63.3922 39.1626 63.4845 39.3472 63.4614C39.4857 63.4384 39.6241 63.5307 39.6472 63.6691C39.6472 63.6922 39.6472 63.7153 39.6472 63.7384C39.6472 63.8307 39.6241 63.923 39.578 63.9922C39.5087 64.0384 39.4395 64.0614 39.3472 64.0614C39.1857 64.0614 39.0241 64.0153 38.8857 63.923C38.7703 63.8307 38.7011 63.7153 38.6549 63.5768C38.5857 63.7614 38.4241 63.8999 38.2395 63.9691C38.0087 64.0384 37.7549 64.0614 37.5011 64.0614L36.9934 64.0845Z" fill="#313131" fill-opacity="0.6"/>
<path d="M39.3469 64.0848C39.2084 64.1078 39.07 64.0155 39.0469 63.8771C39.0469 63.854 39.0469 63.8309 39.0469 63.8078C39.0469 63.7155 39.07 63.6232 39.1161 63.554C39.1853 63.5078 39.2546 63.4848 39.3469 63.4848H40.4776V58.8694H41.0776V64.0848H39.3469Z" fill="#313131" fill-opacity="0.6"/>
<path d="M45.0005 63.4847C44.862 63.4847 44.7236 63.4616 44.5851 63.4386C44.4236 63.3924 44.2851 63.3462 44.1466 63.2539C44.0082 63.1616 43.8697 63.0232 43.8005 62.8847C43.6851 62.7001 43.6389 62.4693 43.662 62.2386C43.662 62.0078 43.7082 61.777 43.8005 61.5924C43.8928 61.4309 44.0082 61.2693 44.1697 61.1539C44.3082 61.0386 44.4697 60.9693 44.6543 60.9232C44.8159 60.877 45.0005 60.8539 45.1851 60.8539H46.3389V62.9309C46.3159 63.0924 46.362 63.2309 46.4313 63.3693C46.5005 63.4616 46.6389 63.4847 46.8466 63.4847H47.0313C47.1697 63.4616 47.3082 63.5539 47.3313 63.7155C47.3313 63.7386 47.3313 63.7616 47.3313 63.7847C47.3313 63.877 47.3082 63.9693 47.262 64.0386C47.1928 64.0847 47.1236 64.1078 47.0313 64.1078H46.7774C46.662 64.1078 46.5466 64.1078 46.4082 64.0847C46.2928 64.0616 46.2005 64.0155 46.1082 63.9693C46.0159 63.9001 45.9466 63.8309 45.8774 63.7386C45.8082 63.6232 45.762 63.5078 45.762 63.3693C45.6466 63.4155 45.5313 63.4386 45.3928 63.4616C45.2543 63.4616 45.1159 63.4847 45.0005 63.4847ZM44.2389 62.1693C44.2389 62.3539 44.3082 62.5386 44.4236 62.6539C44.6082 62.7924 44.8159 62.8616 45.0466 62.8386C45.162 62.8386 45.2774 62.8155 45.3928 62.7924C45.5082 62.7693 45.6236 62.7463 45.7159 62.7001V61.4078H45.0697C44.862 61.4078 44.6543 61.4539 44.4697 61.5924C44.3082 61.7539 44.2159 61.9616 44.2389 62.1693ZM44.4005 59.4924C44.4005 59.2847 44.5851 59.1001 44.7928 59.1001C45.0005 59.1001 45.1851 59.2847 45.1851 59.4924C45.1851 59.5847 45.1389 59.7001 45.0697 59.7693C44.9082 59.9309 44.6774 59.9309 44.5159 59.7693C44.4466 59.7001 44.4005 59.5847 44.4005 59.4924ZM45.3466 59.4924C45.3466 59.2847 45.5082 59.1001 45.7389 59.1001C45.9466 59.1001 46.1313 59.2616 46.1313 59.4924C46.1313 59.7232 45.9697 59.8847 45.7389 59.8847C45.6466 59.8847 45.5313 59.8386 45.462 59.7693C45.3928 59.7001 45.3466 59.5847 45.3466 59.4924Z" fill="#313131" fill-opacity="0.6"/>
<path d="M47.009 64.0845C46.8705 64.1076 46.7321 64.0153 46.709 63.8769C46.709 63.8538 46.709 63.8307 46.709 63.8076C46.709 63.7153 46.7321 63.623 46.7782 63.5538C46.8474 63.5076 46.9167 63.4845 47.009 63.4845H47.4936C47.5859 63.4845 47.7013 63.4845 47.7936 63.4615C47.8628 63.4615 47.9321 63.4384 48.0013 63.3922C48.0474 63.3461 48.0936 63.2999 48.1167 63.2307C48.1398 63.1384 48.1628 63.0461 48.1628 62.9538V61.2922H48.7628V62.6999C48.7628 62.8153 48.7628 62.9307 48.7859 63.023C48.809 63.1153 48.8321 63.2076 48.8782 63.2769C48.9244 63.3461 48.9936 63.3922 49.0859 63.4384C49.1782 63.4845 49.2936 63.5076 49.409 63.5076C49.5475 63.4845 49.6859 63.5769 49.709 63.7153C49.709 63.7384 49.709 63.7615 49.709 63.7845C49.709 63.8769 49.6859 63.9692 49.6398 64.0384C49.5705 64.0845 49.5013 64.1076 49.409 64.1076C49.2475 64.1076 49.0859 64.0615 48.9475 63.9692C48.8321 63.8769 48.7628 63.7615 48.7167 63.623C48.6475 63.8076 48.4859 63.9461 48.3013 64.0153C48.0705 64.0845 47.8398 64.1076 47.609 64.1076H47.009V64.0845ZM47.5859 65.1922C47.5859 65.0999 47.6321 64.9845 47.7013 64.9153C47.8628 64.7538 48.0936 64.7538 48.2551 64.9153C48.3244 64.9845 48.3705 65.0768 48.3705 65.1922C48.3705 65.2845 48.3244 65.3999 48.2551 65.4692C48.0936 65.6307 47.8628 65.6307 47.7013 65.4692C47.6321 65.3999 47.5859 65.2845 47.5859 65.1922ZM48.5551 65.1922C48.5551 65.0999 48.6013 64.9845 48.6705 64.9153C48.7398 64.8461 48.8321 64.7999 48.9475 64.7999C49.0398 64.7999 49.1551 64.8461 49.2244 64.9153C49.2936 64.9845 49.3398 65.0768 49.3398 65.1922C49.3398 65.3999 49.1782 65.5845 48.9475 65.5845C48.8551 65.5845 48.7398 65.5384 48.6705 65.4692C48.5782 65.3999 48.5321 65.2845 48.5551 65.1922Z" fill="#313131" fill-opacity="0.6"/>
<path d="M49.4084 64.085C49.2699 64.1081 49.1315 64.0158 49.1084 63.8773C49.1084 63.8542 49.1084 63.8311 49.1084 63.8081C49.1084 63.7157 49.1315 63.6234 49.1776 63.5542C49.2469 63.5081 49.3161 63.485 49.4084 63.485H50.493C50.6315 63.4619 50.7699 63.5542 50.793 63.6927C50.793 63.7157 50.793 63.7388 50.793 63.7619C50.793 63.8542 50.7699 63.9465 50.7238 64.0158C50.6546 64.0619 50.5853 64.085 50.493 64.085H49.4084Z" fill="#313131" fill-opacity="0.6"/>
<path d="M50.4924 64.085C50.3539 64.1081 50.2155 64.0158 50.1924 63.8773C50.1924 63.8542 50.1924 63.8311 50.1924 63.8081C50.1924 63.7157 50.2155 63.6234 50.2616 63.5542C50.3308 63.5081 50.4001 63.485 50.4924 63.485H51.577C51.7155 63.4619 51.8539 63.5542 51.877 63.6927C51.877 63.7157 51.877 63.7388 51.877 63.7619C51.877 63.8542 51.8539 63.9465 51.8078 64.0158C51.7385 64.0619 51.6693 64.085 51.577 64.085H50.4924Z" fill="#313131" fill-opacity="0.6"/>
<path d="M51.5783 64.0852C51.4399 64.1083 51.3014 64.016 51.2783 63.8775C51.2783 63.8545 51.2783 63.8314 51.2783 63.8083C51.2783 63.716 51.3014 63.6237 51.3476 63.5545C51.4168 63.5083 51.486 63.4852 51.5783 63.4852H52.6629C52.8014 63.4621 52.9399 63.5545 52.9629 63.6929C52.9629 63.716 52.9629 63.7391 52.9629 63.7621C52.9629 63.8545 52.9399 63.9468 52.8937 64.016C52.8245 64.0622 52.7552 64.0852 52.6629 64.0852H51.5783Z" fill="#313131" fill-opacity="0.6"/>
<path d="M52.6623 64.0852C52.5238 64.1083 52.3854 64.016 52.3623 63.8775C52.3623 63.8545 52.3623 63.8314 52.3623 63.8083C52.3623 63.716 52.3854 63.6237 52.4315 63.5545C52.5008 63.5083 52.57 63.4852 52.6623 63.4852H53.7469C53.8854 63.4621 54.0238 63.5545 54.0469 63.6929C54.0469 63.716 54.0469 63.7391 54.0469 63.7621C54.0469 63.8545 54.0238 63.9468 53.9777 64.016C53.9085 64.0622 53.8392 64.0852 53.7469 64.0852H52.6623Z" fill="#313131" fill-opacity="0.6"/>
<path d="M53.7238 64.085C53.5854 64.1081 53.4469 64.0158 53.4238 63.8773C53.4238 63.8542 53.4238 63.8311 53.4238 63.8081C53.4238 63.7157 53.4469 63.6234 53.4931 63.5542C53.5623 63.5081 53.6315 63.485 53.7238 63.485H54.8084C54.9469 63.4619 55.0854 63.5542 55.1084 63.6927C55.1084 63.7157 55.1084 63.7388 55.1084 63.7619C55.1084 63.8542 55.0854 63.9465 55.0392 64.0158C54.97 64.0619 54.9008 64.085 54.8084 64.085H53.7238Z" fill="#313131" fill-opacity="0.6"/>
<path d="M54.8078 64.0852C54.6694 64.1083 54.5309 64.016 54.5078 63.8775C54.5078 63.8545 54.5078 63.8314 54.5078 63.8083C54.5078 63.716 54.5309 63.6237 54.577 63.5545C54.6463 63.5083 54.7155 63.4852 54.8078 63.4852H55.8924C56.0309 63.4621 56.1694 63.5545 56.1924 63.6929C56.1924 63.716 56.1924 63.7391 56.1924 63.7621C56.1924 63.8545 56.1694 63.9468 56.1232 64.016C56.054 64.0622 55.9847 64.0852 55.8924 64.0852H54.8078Z" fill="#313131" fill-opacity="0.6"/>
<path d="M55.8938 64.0852C55.7553 64.1083 55.6168 64.016 55.5938 63.8775C55.5938 63.8545 55.5938 63.8314 55.5938 63.8083C55.5938 63.716 55.6168 63.6237 55.663 63.5545C55.7322 63.5083 55.8014 63.4852 55.8938 63.4852H56.9784C57.1168 63.4621 57.2553 63.5545 57.2784 63.6929C57.2784 63.716 57.2784 63.7391 57.2784 63.7621C57.2784 63.8545 57.2553 63.9468 57.2091 64.016C57.1399 64.0622 57.0707 64.0852 56.9784 64.0852H55.8938Z" fill="#313131" fill-opacity="0.6"/>
<path d="M56.9777 64.085C56.8393 64.1081 56.7008 64.0158 56.6777 63.8773C56.6777 63.8542 56.6777 63.8311 56.6777 63.8081C56.6777 63.7157 56.7008 63.6234 56.747 63.5542C56.8162 63.5081 56.8854 63.485 56.9777 63.485H58.0624C58.2008 63.4619 58.3393 63.5542 58.3623 63.6927C58.3623 63.7157 58.3623 63.7388 58.3623 63.7619C58.3623 63.8542 58.3393 63.9465 58.2931 64.0158C58.2239 64.0619 58.1547 64.085 58.0624 64.085H56.9777Z" fill="#313131" fill-opacity="0.6"/>
<path d="M58.0617 64.085C57.9233 64.1081 57.7848 64.0157 57.7617 63.8773C57.7617 63.8542 57.7617 63.8311 57.7617 63.8081C57.7617 63.7157 57.7848 63.6234 57.831 63.5542C57.9002 63.5081 57.9694 63.485 58.0617 63.485H58.5463C58.6386 63.485 58.754 63.485 58.8463 63.4619C58.9156 63.4619 58.9848 63.4388 59.054 63.3927C59.1002 63.3465 59.1463 63.3004 59.1694 63.2311C59.1925 63.1388 59.2156 63.0465 59.2156 62.9542V61.2927H59.8156V62.7004C59.8156 62.8157 59.8156 62.9311 59.8386 63.0234C59.8617 63.1157 59.8848 63.2081 59.931 63.2773C59.9771 63.3465 60.0463 63.3927 60.1386 63.4388C60.231 63.485 60.3463 63.5081 60.4617 63.5081C60.6002 63.485 60.7386 63.5773 60.7617 63.7157C60.7617 63.7388 60.7617 63.7619 60.7617 63.785C60.7617 63.8773 60.7386 63.9696 60.6925 64.0388C60.6233 64.085 60.554 64.1081 60.4617 64.1081C60.3002 64.1081 60.1386 64.0619 60.0002 63.9696C59.8848 63.8773 59.8156 63.7619 59.7694 63.6234C59.7002 63.8081 59.5386 63.9465 59.354 64.0157C59.1233 64.085 58.8925 64.1081 58.6617 64.1081H58.0617V64.085ZM59.1463 60.0465C59.1463 59.9542 59.1925 59.8388 59.2617 59.7696C59.4233 59.6081 59.654 59.6081 59.8156 59.7696C59.8848 59.8388 59.931 59.9311 59.931 60.0465C59.931 60.2542 59.7463 60.4388 59.5386 60.4388C59.331 60.4388 59.1463 60.2542 59.1463 60.0465Z" fill="#313131" fill-opacity="0.6"/>
<path d="M60.4387 64.0848C60.3002 64.1078 60.1617 64.0155 60.1387 63.8771C60.1387 63.854 60.1387 63.8309 60.1387 63.8078C60.1387 63.7155 60.1617 63.6232 60.2079 63.554C60.2771 63.5078 60.3464 63.4848 60.4387 63.4848H61.2694V58.8694H61.8694V62.4463C62.1002 62.0771 62.3771 61.754 62.7464 61.5002C63.0925 61.2694 63.5079 61.154 63.9002 61.1771C64.3156 61.154 64.731 61.3155 65.0079 61.6155C65.2848 61.9617 65.4233 62.4002 65.4002 62.8386V64.0848H60.4387ZM64.8233 63.4848V63.0002C64.8233 62.8386 64.8002 62.7002 64.7771 62.5386C64.7541 62.4002 64.6848 62.2617 64.5925 62.1463C64.5002 62.0309 64.3848 61.9386 64.2694 61.8925C64.1079 61.8232 63.9464 61.8002 63.7848 61.8002C63.5541 61.8002 63.3233 61.8463 63.1387 61.9617C62.931 62.0771 62.7464 62.2155 62.6079 62.3771C62.4464 62.5386 62.3079 62.7232 62.1925 62.9309C62.0771 63.1155 61.9848 63.3232 61.9156 63.5078L64.8233 63.4848Z" fill="#313131" fill-opacity="0.6"/>
<path d="M68.9319 64.0848C68.9319 64.3386 68.8626 64.5925 68.7472 64.8233C68.6549 65.0079 68.4934 65.1694 68.3088 65.2848C68.1011 65.4002 67.8934 65.4925 67.6626 65.5386C67.3857 65.5848 67.1088 65.6079 66.8319 65.6079H66.5319V65.0079H66.7626C66.9703 65.0079 67.178 65.0079 67.3857 64.9848C67.5472 64.9617 67.7319 64.9156 67.8703 64.8463C68.0088 64.7771 68.1242 64.6848 68.1934 64.5694C68.2857 64.431 68.3319 64.2694 68.3088 64.0848H67.478C67.2934 64.0848 67.1088 64.0617 66.9242 64.0156C66.7626 63.9694 66.6242 63.9002 66.4857 63.8079C66.3472 63.6925 66.2549 63.5771 66.1857 63.4156C66.1165 63.231 66.0703 63.0233 66.0703 62.8156C66.0703 62.6079 66.0934 62.4233 66.1626 62.2386C66.2319 62.054 66.3242 61.8925 66.4395 61.7309C66.578 61.5925 66.7165 61.454 66.9011 61.3848C67.0857 61.2925 67.2934 61.2463 67.5011 61.2463C67.7319 61.2463 67.9395 61.2925 68.1472 61.3848C68.3319 61.4771 68.4703 61.6156 68.5857 61.7771C68.7011 61.9617 68.7703 62.1694 68.8165 62.3771C68.8626 62.631 68.8857 62.9079 68.8857 63.1617V63.5079H69.3934C69.5319 63.4848 69.6703 63.5771 69.6934 63.7156C69.6934 63.7386 69.6934 63.7617 69.6934 63.7848C69.6934 63.8771 69.6703 63.9694 69.6242 64.0386C69.5549 64.0848 69.4857 64.1079 69.3934 64.1079L68.9319 64.0848ZM66.7165 62.7463C66.6934 62.954 66.7857 63.1617 66.9242 63.3002C67.1088 63.4386 67.3395 63.4848 67.5472 63.4848H68.3319V63.0002C68.3549 62.7002 68.2857 62.4002 68.1472 62.1463C68.0088 61.9156 67.778 61.8002 67.5242 61.8233C67.2703 61.8233 67.0395 61.9386 66.9011 62.1233C66.8319 62.2156 66.7857 62.3079 66.7626 62.4233C66.7395 62.5386 66.7165 62.631 66.7165 62.7463Z" fill="#313131" fill-opacity="0.6"/>
<path d="M69.4621 64.0845C69.3236 64.1076 69.1852 64.0153 69.1621 63.8768C69.1621 63.8538 69.1621 63.8307 69.1621 63.8076C69.1621 63.7153 69.1852 63.623 69.2313 63.5538C69.3006 63.5076 69.3698 63.4845 69.4621 63.4845H70.616V58.8691H71.216V64.0845H69.4621Z" fill="#313131" fill-opacity="0.6"/>
<path d="M72.8314 58.8696V64.085H72.2314V58.8696H72.8314Z" fill="#313131" fill-opacity="0.6"/>
<path d="M76.7319 63.485C76.5935 63.485 76.455 63.4619 76.3165 63.4388C76.155 63.3927 76.0165 63.3465 75.8781 63.2542C75.7396 63.1619 75.6012 63.0234 75.5319 62.885C75.4165 62.7003 75.3704 62.4696 75.3935 62.2388C75.3935 62.008 75.4396 61.7773 75.5319 61.5927C75.6242 61.4311 75.7396 61.2696 75.8781 61.1542C76.0165 61.0388 76.1781 60.9696 76.3627 60.9234C76.5242 60.8773 76.7089 60.8542 76.8935 60.8542H78.0473V62.9311C78.0242 63.0926 78.0704 63.2311 78.1396 63.3696C78.2089 63.4619 78.3473 63.485 78.555 63.485H78.7396C78.8781 63.4619 79.0165 63.5542 79.0396 63.7157C79.0396 63.7388 79.0396 63.7619 79.0396 63.785C79.0396 63.8773 79.0165 63.9696 78.9704 64.0388C78.9012 64.085 78.8319 64.108 78.7396 64.108H78.4858C78.3704 64.108 78.2319 64.108 78.1165 64.085C78.0012 64.0619 77.9089 64.0157 77.8165 63.9696C77.7242 63.9003 77.655 63.8311 77.5858 63.7388C77.5165 63.6234 77.4704 63.508 77.4704 63.3696C77.355 63.4157 77.2396 63.4388 77.1012 63.4619C76.9858 63.4619 76.8473 63.485 76.7319 63.485ZM75.9704 62.1696C75.9704 62.3542 76.0396 62.5388 76.155 62.6542C76.3396 62.7926 76.5473 62.8619 76.7781 62.8388C76.8935 62.8388 77.0089 62.8157 77.1242 62.7926C77.2396 62.7696 77.355 62.7465 77.4473 62.7003V61.408H76.8012C76.5935 61.408 76.3858 61.4542 76.2012 61.5927C76.0396 61.7542 75.9473 61.9619 75.9704 62.1696ZM76.1319 59.4927C76.1319 59.285 76.3165 59.1003 76.5242 59.1003C76.7319 59.1003 76.9165 59.285 76.9165 59.4927C76.9165 59.585 76.8704 59.7003 76.8012 59.7696C76.6396 59.9311 76.4088 59.9311 76.2473 59.7696C76.1781 59.7003 76.1319 59.585 76.1319 59.4927ZM77.0781 59.4927C77.0781 59.285 77.2396 59.1003 77.4704 59.1003C77.5627 59.1003 77.6781 59.1465 77.7473 59.2157C77.8165 59.285 77.8627 59.3773 77.8627 59.4927C77.8627 59.7003 77.7012 59.885 77.4704 59.885C77.3781 59.885 77.2627 59.8388 77.1935 59.7696C77.1242 59.7003 77.0781 59.585 77.0781 59.4927Z" fill="#313131" fill-opacity="0.6"/>
<path d="M78.7385 64.0852C78.6 64.1083 78.4616 64.016 78.4385 63.8775C78.4385 63.8545 78.4385 63.8314 78.4385 63.8083C78.4385 63.716 78.4616 63.6237 78.5077 63.5545C78.5769 63.5083 78.6462 63.4852 78.7385 63.4852H79.8231C79.9616 63.4621 80.1 63.5545 80.1231 63.6929C80.1231 63.716 80.1231 63.7391 80.1231 63.7621C80.1231 63.8545 80.1 63.9468 80.0539 64.016C79.9846 64.0622 79.9154 64.0852 79.8231 64.0852H78.7385Z" fill="#313131" fill-opacity="0.6"/>
<path d="M79.8244 64.0852C79.6859 64.1083 79.5475 64.016 79.5244 63.8775C79.5244 63.8545 79.5244 63.8314 79.5244 63.8083C79.5244 63.716 79.5475 63.6237 79.5936 63.5545C79.6629 63.5083 79.7321 63.4852 79.8244 63.4852H80.909C81.0475 63.4621 81.186 63.5545 81.209 63.6929C81.209 63.716 81.209 63.7391 81.209 63.7621C81.209 63.8545 81.186 63.9468 81.1398 64.016C81.0706 64.0622 81.0013 64.0852 80.909 64.0852H79.8244Z" fill="#313131" fill-opacity="0.6"/>
<path d="M80.9084 64.085C80.7699 64.1081 80.6315 64.0158 80.6084 63.8773C80.6084 63.8542 80.6084 63.8311 80.6084 63.8081C80.6084 63.7157 80.6315 63.6234 80.6776 63.5542C80.7469 63.5081 80.8161 63.485 80.9084 63.485H81.993C82.1315 63.4619 82.2699 63.5542 82.293 63.6927C82.293 63.7157 82.293 63.7388 82.293 63.7619C82.293 63.8542 82.2699 63.9465 82.2238 64.0158C82.1546 64.0619 82.0853 64.085 81.993 64.085H80.9084Z" fill="#313131" fill-opacity="0.6"/>
<path d="M81.9934 64.085C81.8549 64.1081 81.7164 64.0158 81.6934 63.8773C81.6934 63.8542 81.6934 63.8311 81.6934 63.8081C81.6934 63.7157 81.7164 63.6234 81.7626 63.5542C81.8318 63.5081 81.901 63.485 81.9934 63.485H83.078C83.2164 63.4619 83.3549 63.5542 83.378 63.6927C83.378 63.7157 83.378 63.7388 83.378 63.7619C83.378 63.8542 83.3549 63.9465 83.3087 64.0158C83.2395 64.0619 83.1703 64.085 83.078 64.085H81.9934Z" fill="#313131" fill-opacity="0.6"/>
<path d="M83.0773 64.085C82.9389 64.1081 82.8004 64.0158 82.7773 63.8773C82.7773 63.8542 82.7773 63.8311 82.7773 63.8081C82.7773 63.7157 82.8004 63.6234 82.8466 63.5542C82.9158 63.5081 82.985 63.485 83.0773 63.485H84.162C84.3004 63.4619 84.4389 63.5542 84.462 63.6927C84.462 63.7157 84.462 63.7388 84.462 63.7619C84.462 63.8542 84.4389 63.9465 84.3927 64.0158C84.3235 64.0619 84.2543 64.085 84.162 64.085H83.0773Z" fill="#313131" fill-opacity="0.6"/>
<path d="M84.1633 64.0852C84.0248 64.1083 83.8864 64.016 83.8633 63.8775C83.8633 63.8545 83.8633 63.8314 83.8633 63.8083C83.8633 63.716 83.8864 63.6237 83.9325 63.5545C84.0017 63.5083 84.071 63.4852 84.1633 63.4852H85.2479C85.3864 63.4621 85.5248 63.5545 85.5479 63.6929C85.5479 63.716 85.5479 63.7391 85.5479 63.7621C85.5479 63.8545 85.5248 63.9468 85.4787 64.016C85.4094 64.0622 85.3402 64.0852 85.2479 64.0852H84.1633Z" fill="#313131" fill-opacity="0.6"/>
<path d="M85.2238 64.085C85.0854 64.1081 84.9469 64.0158 84.9238 63.8773C84.9238 63.8542 84.9238 63.8311 84.9238 63.8081C84.9238 63.7157 84.9469 63.6234 84.9931 63.5542C85.0623 63.5081 85.1315 63.485 85.2238 63.485H86.2854C86.4238 63.4619 86.5623 63.5542 86.5854 63.6927C86.5854 63.7157 86.5854 63.7388 86.5854 63.7619C86.5854 63.8542 86.5623 63.9465 86.5161 64.0158C86.4469 64.0619 86.3777 64.085 86.2854 64.085H85.2238Z" fill="#313131" fill-opacity="0.6"/>
<path d="M86.3088 64.085C86.1703 64.1081 86.0319 64.0158 86.0088 63.8773C86.0088 63.8542 86.0088 63.8311 86.0088 63.8081C86.0088 63.7157 86.0319 63.6234 86.078 63.5542C86.1472 63.5081 86.2165 63.485 86.3088 63.485H87.3934C87.5319 63.4619 87.6703 63.5542 87.6934 63.6927C87.6934 63.7157 87.6934 63.7388 87.6934 63.7619C87.6934 63.8542 87.6703 63.9465 87.6242 64.0158C87.5549 64.0619 87.4857 64.085 87.3934 64.085H86.3088Z" fill="#313131" fill-opacity="0.6"/>
<path d="M87.3918 64.0852C87.2533 64.1083 87.1149 64.016 87.0918 63.8775C87.0918 63.8545 87.0918 63.8314 87.0918 63.8083C87.0918 63.716 87.1149 63.6237 87.161 63.5545C87.2303 63.5083 87.2995 63.4852 87.3918 63.4852H88.4764C88.6149 63.4621 88.7533 63.5545 88.7764 63.6929C88.7764 63.716 88.7764 63.7391 88.7764 63.7621C88.7764 63.8545 88.7533 63.9468 88.7072 64.016C88.638 64.0622 88.5687 64.0852 88.4764 64.0852H87.3918Z" fill="#313131" fill-opacity="0.6"/>
<path d="M88.4777 64.085C88.3393 64.1081 88.2008 64.0158 88.1777 63.8773C88.1777 63.8542 88.1777 63.8311 88.1777 63.8081C88.1777 63.7157 88.2008 63.6234 88.247 63.5542C88.3162 63.5081 88.3854 63.485 88.4777 63.485H89.5624C89.7008 63.4619 89.8393 63.5542 89.8623 63.6927C89.8623 63.7157 89.8623 63.7388 89.8623 63.7619C89.8623 63.8542 89.8393 63.9465 89.7931 64.0158C89.7239 64.0619 89.6547 64.085 89.5624 64.085H88.4777Z" fill="#313131" fill-opacity="0.6"/>
<path d="M89.5627 64.085C89.4242 64.1081 89.2858 64.0158 89.2627 63.8773C89.2627 63.8542 89.2627 63.8311 89.2627 63.8081C89.2627 63.7157 89.2858 63.6234 89.3319 63.5542C89.4012 63.5081 89.4704 63.485 89.5627 63.485H90.6473C90.7858 63.4619 90.9242 63.5542 90.9473 63.6927C90.9473 63.7157 90.9473 63.7388 90.9473 63.7619C90.9473 63.8542 90.9242 63.9465 90.8781 64.0158C90.8089 64.0619 90.7396 64.085 90.6473 64.085H89.5627Z" fill="#313131" fill-opacity="0.6"/>
<path d="M90.6467 64.085C90.5082 64.1081 90.3698 64.0158 90.3467 63.8773C90.3467 63.8542 90.3467 63.8311 90.3467 63.8081C90.3467 63.7157 90.3698 63.6234 90.4159 63.5542C90.4851 63.5081 90.5544 63.485 90.6467 63.485H91.7313C91.8698 63.4619 92.0082 63.5542 92.0313 63.6927C92.0313 63.7157 92.0313 63.7388 92.0313 63.7619C92.0313 63.8542 92.0082 63.9465 91.9621 64.0158C91.8928 64.0619 91.8236 64.085 91.7313 64.085H90.6467Z" fill="#313131" fill-opacity="0.6"/>
<path d="M91.7082 64.0852C91.5697 64.1083 91.4313 64.016 91.4082 63.8775C91.4082 63.8545 91.4082 63.8314 91.4082 63.8083C91.4082 63.716 91.4313 63.6237 91.4774 63.5545C91.5467 63.5083 91.6159 63.4852 91.7082 63.4852H92.7928C92.9313 63.4621 93.0697 63.5545 93.0928 63.6929C93.0928 63.716 93.0928 63.7391 93.0928 63.7621C93.0928 63.8545 93.0697 63.9468 93.0236 64.016C92.9544 64.0622 92.8851 64.0852 92.7928 64.0852H91.7082Z" fill="#313131" fill-opacity="0.6"/>
<path d="M95.3099 64.0854C95.1945 64.0854 95.056 64.0854 94.9407 64.0392C94.8483 64.0162 94.7791 63.97 94.7099 63.9239C94.6407 63.8777 94.5945 63.8316 94.5714 63.7623C94.5253 63.7162 94.5022 63.6469 94.4791 63.5777C94.433 63.67 94.3868 63.7623 94.2945 63.8316C94.2022 63.9008 94.1099 63.9469 94.0176 63.97C93.8791 64.0162 93.7407 64.0392 93.6022 64.0392C93.4407 64.0623 93.256 64.0623 93.0484 64.0623H92.8176C92.6791 64.0854 92.5407 63.9931 92.5176 63.8546C92.5176 63.8316 92.5176 63.8085 92.5176 63.7854C92.5176 63.6931 92.5407 63.6008 92.5868 63.5316C92.656 63.4854 92.7253 63.4623 92.8176 63.4623H93.0714C93.2099 63.4623 93.3484 63.4623 93.4868 63.4393C93.5791 63.4393 93.6714 63.4162 93.7637 63.37C93.833 63.3239 93.8791 63.2777 93.9022 63.2085C93.9253 63.1162 93.9484 63.0239 93.9484 62.9316V61.6162H94.5484V62.6546C94.5484 62.77 94.5483 62.8854 94.5714 62.9777C94.5714 63.07 94.5945 63.1623 94.6407 63.2316C94.6868 63.3008 94.733 63.3469 94.8022 63.3931C94.8945 63.4393 94.9868 63.4623 95.0791 63.4623C95.1714 63.1854 95.3099 62.9085 95.4714 62.6546C95.633 62.3777 95.8407 62.1239 96.0484 61.9162C96.2791 61.7085 96.533 61.5239 96.8099 61.3854C97.1099 61.2469 97.4099 61.1777 97.733 61.1777C98.1484 61.1546 98.5637 61.3162 98.8868 61.6162C99.1868 61.9623 99.3253 62.4008 99.3022 62.8623V63.4854H99.8561C99.9945 63.4623 100.133 63.5546 100.156 63.6931C100.156 63.7162 100.156 63.7393 100.156 63.7623C100.156 63.8546 100.133 63.9469 100.087 64.0162C100.018 64.0623 99.9484 64.0854 99.8561 64.0854H95.3099ZM98.656 63.4854V63.0008C98.656 62.8392 98.633 62.6777 98.6099 62.5162C98.5868 62.3777 98.5176 62.2393 98.4253 62.1239C98.333 62.0085 98.2176 61.9393 98.1022 61.87C97.9407 61.8008 97.7791 61.7777 97.6176 61.7777C97.3868 61.7777 97.156 61.8239 96.9714 61.9393C96.7637 62.0316 96.5791 62.17 96.4176 62.3316C96.256 62.4931 96.0945 62.6777 95.9791 62.8854C95.8637 63.07 95.7714 63.2777 95.6791 63.4854H98.656Z" fill="#313131" fill-opacity="0.6"/>
<path d="M99.8078 64.0853C99.6693 64.1084 99.5309 64.0161 99.5078 63.8776C99.5078 63.8545 99.5078 63.8315 99.5078 63.8084C99.5078 63.7161 99.5309 63.6238 99.577 63.5545C99.6463 63.5084 99.7155 63.4853 99.8078 63.4853H100.292C100.385 63.4853 100.5 63.4853 100.592 63.4622C100.662 63.4622 100.731 63.4392 100.8 63.393C100.846 63.3469 100.892 63.3007 100.916 63.2315C100.939 63.1392 100.962 63.0469 100.962 62.9545V61.293H101.562V62.7007C101.562 62.8161 101.562 62.9315 101.585 63.0238C101.608 63.1161 101.631 63.2084 101.677 63.2776C101.723 63.3469 101.792 63.393 101.885 63.4392C101.977 63.4853 102.092 63.5084 102.208 63.5084C102.346 63.4853 102.485 63.5776 102.508 63.7161C102.508 63.7392 102.508 63.7622 102.508 63.7853C102.508 63.8776 102.485 63.9699 102.439 64.0392C102.369 64.0853 102.3 64.1084 102.208 64.1084C102.046 64.1084 101.885 64.0622 101.746 63.9699C101.631 63.8776 101.562 63.7622 101.516 63.6238C101.446 63.8084 101.285 63.9469 101.1 64.0161C100.869 64.0853 100.639 64.1084 100.408 64.1084H99.8078V64.0853ZM100.892 60.0469C100.892 59.9545 100.939 59.8392 101.008 59.7699C101.077 59.7007 101.169 59.6545 101.285 59.6545C101.492 59.6545 101.677 59.8161 101.677 60.0469C101.677 60.1392 101.631 60.2545 101.562 60.3238C101.492 60.393 101.4 60.4392 101.285 60.4392C101.077 60.4392 100.892 60.2545 100.892 60.0469Z" fill="#313131" fill-opacity="0.6"/>
<path d="M106.686 64.0848C106.524 64.0848 106.363 64.0617 106.201 63.9694C106.063 63.8771 105.947 63.7617 105.878 63.6002V63.5771C105.786 63.7617 105.647 63.9002 105.463 64.0155C105.255 64.1309 105.024 64.1771 104.793 64.1771C104.563 64.1771 104.332 64.1309 104.101 64.0617C103.847 63.9694 103.593 63.8309 103.386 63.6694C103.34 63.7617 103.27 63.8309 103.201 63.9002C103.132 63.9463 103.063 63.9925 102.993 64.0155C102.924 64.0386 102.832 64.0617 102.763 64.0617C102.67 64.0617 102.601 64.0848 102.509 64.0617H102.186C102.047 64.0848 101.909 63.9925 101.886 63.854C101.886 63.8309 101.886 63.8079 101.886 63.7848C101.886 63.6925 101.909 63.6002 101.955 63.5309C102.024 63.4848 102.093 63.4617 102.186 63.4617H102.486C102.555 63.4617 102.601 63.4617 102.67 63.4386C102.74 63.4155 102.809 63.3925 102.855 63.3463C102.924 63.3002 102.993 63.2309 103.04 63.1386C103.109 63.0232 103.178 62.9079 103.224 62.7925C103.317 62.5386 103.432 62.2848 103.57 62.0309C103.663 61.8694 103.801 61.7079 103.94 61.5925C104.055 61.5002 104.193 61.4309 104.332 61.3848C104.47 61.3617 104.586 61.3386 104.724 61.3386C104.909 61.3386 105.07 61.3617 105.232 61.454C105.393 61.5232 105.532 61.6155 105.647 61.754C105.763 61.8925 105.855 62.054 105.924 62.2155C105.993 62.4002 106.017 62.6079 106.017 62.8155C106.017 62.8386 106.017 62.8848 106.017 62.9079C106.017 62.9309 106.017 62.9771 106.017 63.0002C106.063 63.1386 106.132 63.254 106.224 63.3463C106.363 63.4386 106.501 63.4848 106.663 63.4617C106.801 63.4386 106.94 63.5309 106.963 63.6694C106.963 63.6925 106.963 63.7155 106.963 63.7386C106.963 63.8309 106.94 63.9232 106.893 63.9925C106.847 64.0848 106.755 64.0848 106.686 64.0848ZM105.44 62.7925C105.44 62.6771 105.417 62.5848 105.393 62.4694C105.37 62.3771 105.324 62.2848 105.255 62.1925C105.186 62.1232 105.117 62.054 105.024 62.0079C104.932 61.9617 104.817 61.9386 104.724 61.9386C104.517 61.9386 104.309 62.054 104.17 62.2155C103.94 62.4925 103.778 62.8155 103.686 63.1617C103.847 63.2771 104.032 63.3694 104.217 63.4386C104.401 63.5079 104.586 63.5309 104.77 63.554C104.955 63.554 105.117 63.5079 105.255 63.3694C105.37 63.2309 105.463 63.0002 105.44 62.7925Z" fill="#313131" fill-opacity="0.6"/>
<path d="M106.686 64.0848C106.547 64.1078 106.409 64.0155 106.386 63.8771C106.386 63.854 106.386 63.8309 106.386 63.8078C106.386 63.7155 106.409 63.6232 106.455 63.554C106.524 63.5078 106.593 63.4848 106.686 63.4848H107.817V58.8694H108.417V64.0848H106.686Z" fill="#313131" fill-opacity="0.6"/>
<path d="M110.054 58.8691V64.0845H109.454V58.8691H110.054Z" fill="#313131" fill-opacity="0.6"/>
<path d="M0.115234 68.3777H0.83062L3.53062 72.5315H3.5537V68.3777H4.19985V73.4777H3.46139L0.784466 69.3931H0.761389V73.5008H0.115234V68.3777Z" fill="#313131" fill-opacity="0.6"/>
<path d="M9.18651 73.4768C9.04805 73.546 8.90959 73.5921 8.74805 73.5691C8.60959 73.5691 8.47113 73.5229 8.37882 73.4306C8.26343 73.3152 8.21728 73.1537 8.24036 72.9921C8.07882 73.1768 7.8942 73.3383 7.66343 73.4306C7.43266 73.5229 7.20189 73.5691 6.94805 73.5691C6.78651 73.5691 6.62497 73.546 6.48651 73.5229C6.34805 73.4998 6.20959 73.4306 6.0942 73.3383C5.97882 73.246 5.88651 73.1537 5.84035 73.0152C5.77112 72.8768 5.74805 72.6921 5.74805 72.5306C5.74805 72.346 5.77112 72.1844 5.86343 72.0229C5.93266 71.8844 6.02497 71.7921 6.14036 71.6998C6.25574 71.6075 6.3942 71.5614 6.53266 71.5152C6.67112 71.4691 6.83266 71.4229 6.9942 71.3998C7.15574 71.3768 7.31728 71.3537 7.47882 71.3306C7.61728 71.3075 7.75574 71.2845 7.87113 71.2614C7.96343 71.2383 8.05574 71.1921 8.14805 71.1229C8.21728 71.0537 8.26343 70.9614 8.24036 70.8691C8.24036 70.7537 8.21728 70.6383 8.17113 70.546C8.12497 70.4768 8.05574 70.4075 7.98651 70.3614C7.8942 70.3152 7.82497 70.2921 7.73266 70.2691C7.64036 70.246 7.54805 70.246 7.43266 70.246C7.20189 70.246 6.9942 70.2921 6.78651 70.3844C6.60189 70.4998 6.48651 70.7306 6.50959 70.9383H5.90959C5.90959 70.7306 5.95574 70.546 6.04805 70.3614C6.14036 70.1998 6.25574 70.0844 6.3942 69.9691C6.55574 69.8768 6.71728 69.8075 6.87882 69.7614C7.06343 69.7152 7.27113 69.6921 7.47882 69.6921C7.64036 69.6921 7.80189 69.7152 7.98651 69.7383C8.14805 69.7614 8.28651 69.8075 8.42497 69.8768C8.56343 69.946 8.67882 70.0614 8.74805 70.1998C8.84036 70.3614 8.88651 70.546 8.86343 70.7306V72.6229C8.86343 72.7383 8.86343 72.8306 8.88651 72.946C8.90959 73.0152 8.95574 73.0383 9.04805 73.0383C9.11728 73.0383 9.18651 73.0152 9.23267 72.9921L9.18651 73.4768ZM8.1942 71.5844C8.12497 71.6306 8.05574 71.6537 7.98651 71.6768C7.8942 71.6998 7.8019 71.7229 7.70959 71.746C7.61728 71.7691 7.50189 71.7691 7.40959 71.7921C7.31728 71.8152 7.20189 71.8152 7.10959 71.8383C7.01728 71.8614 6.92497 71.8844 6.83266 71.9075C6.74036 71.9306 6.67112 71.9768 6.60189 72.0229C6.53266 72.0691 6.48651 72.1383 6.44036 72.2075C6.3942 72.2998 6.37112 72.3921 6.37112 72.4844C6.37112 72.5768 6.3942 72.6691 6.44036 72.7383C6.48651 72.8075 6.53266 72.8537 6.60189 72.8998C6.67112 72.946 6.74036 72.9691 6.83266 72.9921C6.92497 73.0152 7.01728 73.0152 7.10959 73.0152C7.2942 73.0152 7.45574 72.9921 7.61728 72.9229C7.75574 72.8768 7.87113 72.8075 7.96343 72.7152C8.05574 72.646 8.12497 72.5537 8.17113 72.4383C8.21728 72.346 8.24036 72.2537 8.24036 72.1614L8.1942 71.5844Z" fill="#313131" fill-opacity="0.6"/>
<path d="M11.3087 69.7849H12.0471V70.3157H11.3087V72.6234C11.3087 72.6696 11.3087 72.7388 11.3317 72.7849C11.3317 72.8311 11.3548 72.8542 11.401 72.8772C11.4471 72.9003 11.4933 72.9234 11.5394 72.9234C11.6087 72.9234 11.701 72.9465 11.7702 72.9234H12.0471V73.4542H11.5856C11.4471 73.4542 11.3087 73.4542 11.1702 73.4311C11.0779 73.408 10.9856 73.3849 10.8933 73.3157C10.824 73.2465 10.7779 73.1772 10.7317 73.0849C10.6856 72.9465 10.6856 72.808 10.6856 72.6696V70.3157H10.0625V69.7849H10.6856V68.6772H11.3087V69.7849Z" fill="#313131" fill-opacity="0.6"/>
<path d="M14.0775 69.1393H13.4775V68.4009H14.0775V69.1393ZM13.4775 69.7855H14.0775V73.4778H13.4775V69.7855Z" fill="#313131" fill-opacity="0.6"/>
<path d="M15.5322 71.6545C15.5322 71.4007 15.5784 71.1468 15.6476 70.893C15.7168 70.6622 15.8322 70.4545 15.9938 70.2699C16.1553 70.0853 16.3399 69.9468 16.5476 69.8545C17.0553 69.6468 17.6092 69.6468 18.0938 69.8545C18.3015 69.9468 18.5092 70.0853 18.6476 70.2699C18.8092 70.4545 18.9245 70.6622 18.9938 70.893C19.063 71.1468 19.1092 71.4007 19.1092 71.6545C19.1092 71.9083 19.063 72.1622 18.9938 72.416C18.9245 72.6468 18.8092 72.8545 18.6476 73.016C18.4861 73.2007 18.3015 73.3391 18.0938 73.4314C17.5861 73.6391 17.0322 73.6391 16.5476 73.4314C16.3399 73.3391 16.1322 73.2007 15.9938 73.016C15.8322 72.8314 15.7168 72.6237 15.6476 72.416C15.5784 72.1622 15.5322 71.9083 15.5322 71.6545ZM16.2015 71.6545C16.2015 71.8622 16.2245 72.0699 16.2938 72.2545C16.3399 72.416 16.4322 72.5545 16.5476 72.693C16.6399 72.8083 16.7784 72.9007 16.9168 72.9699C17.1938 73.0853 17.5168 73.0853 17.8168 72.9699C17.9553 72.9007 18.0938 72.8083 18.1861 72.693C18.3015 72.5545 18.3707 72.416 18.4399 72.2545C18.5553 71.8622 18.5553 71.4468 18.4399 71.0545C18.3938 70.893 18.3015 70.7545 18.1861 70.616C18.0938 70.5007 17.9553 70.4083 17.8168 70.3391C17.5399 70.2237 17.2168 70.2237 16.9168 70.3391C16.7784 70.4083 16.6399 70.5007 16.5476 70.616C16.4322 70.7545 16.363 70.893 16.2938 71.0545C16.2245 71.2391 16.1784 71.4468 16.2015 71.6545Z" fill="#313131" fill-opacity="0.6"/>
<path d="M20.5615 69.7847H21.1384V70.3616H21.1615C21.2769 70.1539 21.4384 69.9693 21.6692 69.8539C21.8769 69.7385 22.1308 69.6924 22.3846 69.6924C22.5923 69.6924 22.8 69.7155 22.9846 69.7847C23.1461 69.8539 23.2615 69.9462 23.3769 70.0616C23.4692 70.177 23.5615 70.3385 23.5846 70.477C23.6308 70.6616 23.6538 70.8462 23.6538 71.0308V73.4539H23.0538V70.9385C23.0538 70.7308 22.9846 70.5462 22.8461 70.3847C22.7077 70.2462 22.5 70.177 22.2923 70.177C22.1308 70.177 21.9692 70.2001 21.8077 70.2693C21.6923 70.3155 21.5769 70.4078 21.4846 70.5001C21.3923 70.6155 21.3231 70.7308 21.2769 70.8693C21.2308 71.0078 21.2077 71.1693 21.2077 71.3308V73.4308H20.5846V69.7847H20.5615Z" fill="#313131" fill-opacity="0.6"/>
<path d="M28.5475 73.477C28.409 73.5462 28.2706 73.5924 28.109 73.5693C27.9706 73.5693 27.8321 73.5232 27.7398 73.4308C27.6244 73.3155 27.5782 73.1539 27.6013 72.9924C27.4398 73.177 27.2552 73.3385 27.0244 73.4308C26.7936 73.5232 26.5629 73.5693 26.309 73.5693C26.1475 73.5693 25.9859 73.5462 25.8244 73.5232C25.6859 73.5001 25.5475 73.4308 25.4321 73.3385C25.3167 73.2462 25.2244 73.1539 25.1782 73.0155C25.109 72.877 25.0859 72.6924 25.0859 72.5308C25.0859 72.3462 25.109 72.1847 25.2013 72.0232C25.2706 71.8847 25.3629 71.7924 25.4782 71.7001C25.5936 71.6078 25.7321 71.5616 25.8706 71.5155C26.0321 71.4693 26.1706 71.4232 26.3321 71.4001C26.4936 71.377 26.6552 71.3539 26.8167 71.3308C26.9552 71.3078 27.0936 71.2847 27.209 71.2616C27.3013 71.2385 27.3936 71.1924 27.4859 71.1232C27.5552 71.0539 27.6013 70.9616 27.5782 70.8693C27.5782 70.7539 27.5552 70.6385 27.509 70.5462C27.4629 70.477 27.3936 70.4078 27.3244 70.3616C27.2321 70.3155 27.1629 70.2924 27.0475 70.2693C26.9552 70.2462 26.8629 70.2462 26.7475 70.2462C26.5167 70.2462 26.309 70.2924 26.1013 70.3847C25.9167 70.5001 25.8013 70.7078 25.8244 70.9385H25.2244C25.2244 70.7308 25.2706 70.5462 25.3629 70.3616C25.4552 70.2001 25.5706 70.0847 25.709 69.9693C25.8706 69.877 26.0321 69.8078 26.1936 69.7616C26.3782 69.7155 26.5859 69.6924 26.7936 69.6924C26.9552 69.6924 27.1167 69.7155 27.3013 69.7385C27.4629 69.7616 27.6013 69.8078 27.7398 69.877C27.8782 69.9462 27.9936 70.0616 28.0629 70.2001C28.1552 70.3616 28.2013 70.5462 28.1782 70.7308V72.6232C28.1782 72.7385 28.1782 72.8308 28.2013 72.9462C28.2244 73.0155 28.2706 73.0385 28.3629 73.0385C28.4321 73.0385 28.5013 73.0155 28.5475 72.9924V73.477ZM27.5552 71.5847C27.4859 71.6308 27.4167 71.6539 27.3475 71.677C27.2552 71.7001 27.1629 71.7232 27.0706 71.7462C26.9782 71.7693 26.8859 71.7693 26.7706 71.7924C26.6552 71.8155 26.5629 71.8155 26.4706 71.8385C26.3782 71.8616 26.2859 71.8847 26.1936 71.9078C26.1013 71.9308 26.0321 71.977 25.9629 72.0232C25.8936 72.0693 25.8475 72.1385 25.8013 72.2078C25.7552 72.3001 25.7321 72.3924 25.7321 72.4847C25.7321 72.577 25.7552 72.6693 25.8013 72.7385C25.8475 72.8078 25.8936 72.8539 25.9629 72.9001C26.0321 72.9462 26.1013 72.9693 26.1936 72.9924C26.2859 73.0155 26.3782 73.0155 26.4706 73.0155C26.6552 73.0155 26.8167 72.9924 26.9782 72.9232C27.1167 72.877 27.2321 72.8078 27.3244 72.7155C27.4167 72.6462 27.4859 72.5539 27.5321 72.4385C27.5782 72.3462 27.6013 72.2539 27.6013 72.1616L27.5552 71.5847Z" fill="#313131" fill-opacity="0.6"/>
<path d="M29.8623 68.3774H30.4623V73.4774H29.8623V68.3774Z" fill="#313131" fill-opacity="0.6"/>
<path d="M36.3241 68.3777H37.0856L39.0703 73.4777H38.3087L37.7549 71.9315H35.5856L35.0087 73.4777H34.3164L36.3241 68.3777ZM35.8164 71.3777H37.5472L36.6933 69.0008L35.8164 71.3777Z" fill="#313131" fill-opacity="0.6"/>
<path d="M43.247 73.5003H42.6931V72.9234H42.67C42.5547 73.1311 42.3931 73.3157 42.1623 73.4311C41.9547 73.5464 41.7008 73.5926 41.447 73.5926C41.2393 73.5926 41.0316 73.5695 40.847 73.5003C40.6854 73.4311 40.57 73.3388 40.4547 73.2234C40.3623 73.108 40.27 72.9464 40.247 72.7849C40.2008 72.6003 40.1777 72.4157 40.1777 72.2311V69.808H40.7777V72.3234C40.7547 72.7157 41.0316 73.0388 41.4008 73.0618C41.447 73.0618 41.47 73.0618 41.5162 73.0618C41.6777 73.0618 41.8393 73.0388 42.0008 72.9695C42.1393 72.9234 42.2547 72.8311 42.347 72.7157C42.4393 72.6003 42.5085 72.4849 42.5547 72.3464C42.6008 72.208 42.6239 72.0464 42.6239 71.8849V69.7849H43.2239L43.247 73.5003Z" fill="#313131" fill-opacity="0.6"/>
<path d="M47.4009 70.9846C47.3317 70.523 46.9394 70.2 46.4778 70.2461C46.2932 70.2461 46.0855 70.2923 45.924 70.3615C45.7855 70.4307 45.6701 70.5461 45.5778 70.6846C45.4855 70.823 45.4163 70.9846 45.3932 71.1461C45.3471 71.3307 45.3471 71.5153 45.3471 71.6769C45.3471 71.8384 45.3701 72.023 45.4163 72.1846C45.4625 72.3461 45.5086 72.4846 45.6009 72.623C45.6932 72.7384 45.8086 72.8538 45.924 72.923C46.0855 72.9923 46.2471 73.0384 46.4317 73.0384C46.6855 73.0615 46.9394 72.9692 47.124 72.8076C47.3086 72.623 47.424 72.3923 47.4471 72.1384H48.0702C48.024 72.5307 47.8625 72.9 47.5855 73.1769C47.2855 73.4307 46.8701 73.5692 46.4778 73.5461C46.224 73.5461 45.9701 73.5 45.7394 73.4076C45.5317 73.3153 45.3471 73.1769 45.1855 73.0153C45.0471 72.8307 44.9317 72.6461 44.8625 72.4153C44.7932 72.1615 44.7471 71.9076 44.7471 71.6538C44.7471 71.4 44.7932 71.123 44.8625 70.8692C44.9317 70.6384 45.0471 70.4307 45.1855 70.2461C45.324 70.0615 45.5086 69.923 45.7394 69.8307C45.9701 69.7153 46.2471 69.6692 46.5009 69.6692C46.7086 69.6692 46.8932 69.6923 47.1009 69.7384C47.2855 69.7846 47.4471 69.8538 47.5855 69.9692C47.724 70.0846 47.8394 70.2 47.9317 70.3615C48.024 70.5461 48.0932 70.7307 48.0932 70.9384H47.4009V70.9846Z" fill="#313131" fill-opacity="0.6"/>
<path d="M50.2852 69.7849H51.0237V70.3157H50.2852V72.6234C50.2852 72.6696 50.2852 72.7388 50.3083 72.7849C50.3083 72.8311 50.3544 72.8542 50.3775 72.8772C50.4237 72.9003 50.4698 72.9234 50.516 72.9234C50.5852 72.9234 50.6775 72.9465 50.7468 72.9234H51.0237V73.4542H50.5621C50.4237 73.4542 50.2852 73.4542 50.1468 73.4311C50.0544 73.408 49.9621 73.3849 49.8698 73.3157C49.8006 73.2465 49.7544 73.1772 49.7083 73.0849C49.6621 72.9465 49.6621 72.808 49.6621 72.6696V70.3157H49.0391V69.7849H49.6621V68.6772H50.2621L50.2852 69.7849Z" fill="#313131" fill-opacity="0.6"/>
<path d="M53.0541 69.1393H52.4541V68.4009H53.0541V69.1393ZM52.4541 69.7855H53.0541V73.4778H52.4541V69.7855Z" fill="#313131" fill-opacity="0.6"/>
<path d="M54.5322 71.6545C54.5322 71.4007 54.5784 71.1468 54.6476 70.893C54.7168 70.6622 54.8322 70.4545 54.9938 70.2699C55.1553 70.0853 55.3399 69.9468 55.5476 69.8545C56.0553 69.6468 56.6091 69.6468 57.0938 69.8545C57.3015 69.9468 57.5092 70.0853 57.6476 70.2699C57.8092 70.4545 57.9245 70.6622 57.9938 70.893C58.063 71.1468 58.1092 71.4007 58.1092 71.6545C58.1092 71.9083 58.063 72.1622 57.9938 72.416C57.9245 72.6468 57.8092 72.8545 57.6476 73.016C57.4861 73.2007 57.3015 73.3391 57.0938 73.4314C56.5861 73.6391 56.0322 73.6391 55.5476 73.4314C55.3399 73.3391 55.1322 73.2007 54.9938 73.016C54.8322 72.8314 54.7168 72.6237 54.6476 72.416C54.5553 72.1622 54.5322 71.9083 54.5322 71.6545ZM55.1784 71.6545C55.1784 71.8622 55.2015 72.0699 55.2707 72.2545C55.3168 72.416 55.4092 72.5545 55.5245 72.693C55.6168 72.8083 55.7553 72.9007 55.8938 72.9699C56.1707 73.0853 56.4938 73.0853 56.7938 72.9699C56.9322 72.9007 57.0707 72.8083 57.163 72.693C57.2784 72.5545 57.3476 72.416 57.4168 72.2545C57.5322 71.8622 57.5322 71.4468 57.4168 71.0545C57.3707 70.893 57.2784 70.7545 57.163 70.616C57.0707 70.5007 56.9322 70.4083 56.7938 70.3391C56.5168 70.2237 56.1938 70.2237 55.8938 70.3391C55.7553 70.4083 55.6168 70.5007 55.5245 70.616C55.4092 70.7545 55.3399 70.893 55.2707 71.0545C55.2015 71.2391 55.1553 71.4468 55.1784 71.6545Z" fill="#313131" fill-opacity="0.6"/>
<path d="M59.5391 69.7845H60.116V70.3614H60.1391C60.2544 70.1537 60.416 69.9691 60.6237 69.8537C60.8314 69.7383 61.0852 69.6921 61.3391 69.6921C61.5468 69.6921 61.7544 69.7152 61.9391 69.7845C62.1006 69.8537 62.216 69.946 62.3314 70.0614C62.4237 70.1768 62.516 70.3383 62.5391 70.4768C62.5852 70.6614 62.6083 70.846 62.6083 71.0306V73.4537H62.0083V70.9383C62.0314 70.546 61.7544 70.2229 61.3621 70.1998C61.316 70.1998 61.2929 70.1998 61.2468 70.1998C61.0852 70.1998 60.9237 70.2229 60.7621 70.2921C60.6237 70.3383 60.5083 70.4306 60.416 70.5229C60.3237 70.6383 60.2544 70.7537 60.2083 70.8921C60.1621 71.0306 60.1391 71.1921 60.1391 71.3537V73.4537H59.5391V69.7845Z" fill="#313131" fill-opacity="0.6"/>
<path d="M64.8936 69.1391H64.2936V68.4006H64.8936V69.1391ZM64.2705 69.7852H64.8705V73.4776H64.2705V69.7852Z" fill="#313131" fill-opacity="0.6"/>
<path d="M66.5543 69.7845H67.1313V70.3614H67.1543C67.2697 70.1537 67.4313 69.9691 67.6389 69.8537C67.8466 69.7383 68.1005 69.6921 68.3543 69.6921C68.562 69.6921 68.7697 69.7152 68.9543 69.7845C69.1159 69.8537 69.2313 69.946 69.3466 70.0614C69.4389 70.1768 69.5313 70.3383 69.5543 70.4768C69.6005 70.6614 69.6236 70.846 69.6236 71.0306V73.4537H69.0005V70.9383C69.0005 70.7306 68.9313 70.546 68.7928 70.3844C68.6543 70.246 68.4466 70.1768 68.2389 70.1768C68.0774 70.1768 67.9159 70.1998 67.7543 70.2691C67.6159 70.3152 67.5005 70.4075 67.4082 70.4998C67.3159 70.6152 67.2466 70.7306 67.2005 70.8691C67.1543 71.0075 67.1313 71.1691 67.1313 71.3306V73.4306H66.5312L66.5543 69.7845Z" fill="#313131" fill-opacity="0.6"/>
<path d="M74.4476 73.1771C74.4476 73.7771 74.3092 74.2386 74.0322 74.5386C73.7553 74.8386 73.3168 75.0002 72.7399 75.0002C72.5553 75.0002 72.3938 74.9771 72.2092 74.954C72.0476 74.9079 71.863 74.8617 71.7245 74.7694C71.5861 74.6771 71.4476 74.5617 71.3553 74.4233C71.263 74.2617 71.1938 74.1002 71.1938 73.9156H71.7938C71.7938 74.0079 71.8399 74.1233 71.9092 74.1925C71.9784 74.2617 72.0476 74.331 72.1399 74.3771C72.2322 74.4233 72.3476 74.4694 72.4399 74.4925C72.5553 74.5156 72.6476 74.5156 72.763 74.5156C72.9476 74.5156 73.1092 74.4925 73.2707 74.4002C73.4092 74.331 73.5245 74.2387 73.6168 74.1233C73.7092 73.9848 73.7784 73.8463 73.8245 73.6848C73.8707 73.5002 73.8938 73.3156 73.8938 73.1079V72.854H73.8476C73.8015 72.9694 73.7322 73.0617 73.6399 73.154C73.5476 73.2463 73.4553 73.3156 73.363 73.3617C73.2476 73.4079 73.1553 73.454 73.0399 73.4771C72.9245 73.5002 72.8092 73.5233 72.6938 73.5233C72.4399 73.5233 72.2092 73.4771 71.9784 73.3848C71.7707 73.2925 71.6092 73.154 71.4707 72.9694C71.3322 72.7848 71.2168 72.6002 71.1476 72.3694C71.0784 72.1387 71.0322 71.8848 71.0322 71.654C71.0322 71.4233 71.0553 71.1925 71.1245 70.9848C71.1707 70.754 71.2861 70.5463 71.4015 70.3617C71.5399 70.1771 71.7245 70.0156 71.9322 69.9002C72.1861 69.7617 72.463 69.7156 72.7399 69.7156C72.9707 69.7156 73.1784 69.7617 73.3861 69.8771C73.5938 69.9694 73.7553 70.131 73.8476 70.3387V69.8079H74.4245L74.4476 73.1771ZM72.7399 72.9925C73.0861 73.0156 73.4092 72.831 73.5938 72.531C73.6861 72.3925 73.7553 72.231 73.7784 72.0694C73.8245 71.9079 73.8476 71.7233 73.8476 71.5617C73.8476 71.4002 73.8245 71.2387 73.8015 71.0771C73.7784 70.9156 73.7092 70.7771 73.6168 70.6387C73.5245 70.5233 73.4322 70.4079 73.2938 70.3387C73.1553 70.2694 72.9707 70.2233 72.8092 70.2233C72.6245 70.2233 72.463 70.2463 72.3015 70.3387C72.163 70.4079 72.0476 70.5002 71.9553 70.6387C71.863 70.7771 71.7938 70.9156 71.7707 71.0771C71.7245 71.2387 71.7015 71.4233 71.7015 71.5848C71.7015 71.7463 71.7245 71.931 71.7476 72.0925C71.7707 72.254 71.8399 72.4156 71.9322 72.554C72.0015 72.6925 72.1168 72.8079 72.2553 72.8771C72.3938 72.9694 72.5553 73.0156 72.7399 72.9925Z" fill="#313131" fill-opacity="0.6"/>
<path d="M78.8779 68.3775H81.1164C81.5318 68.3544 81.9702 68.4929 82.2933 68.7698C82.8241 69.4159 82.8241 70.3621 82.2933 71.0082C81.9702 71.2852 81.5549 71.4467 81.1164 71.4006H79.5472V73.5006H78.8779V68.3775ZM79.5702 70.8236H80.9087C81.2087 70.8467 81.5087 70.7775 81.7625 70.5929C82.1087 70.2006 82.1087 69.6006 81.7625 69.1852C81.5087 69.0006 81.2087 68.9313 80.9087 68.9544H79.5702V70.8236Z" fill="#313131" fill-opacity="0.6"/>
<path d="M84.1631 68.3777H84.7631V73.4777H84.1631V68.3777Z" fill="#313131" fill-opacity="0.6"/>
<path d="M89.7242 73.4768C89.5858 73.546 89.4473 73.5921 89.2858 73.5691C89.1473 73.5691 89.0089 73.5229 88.9165 73.4306C88.8012 73.3152 88.755 73.1537 88.7781 72.9921C88.6165 73.1768 88.4319 73.3383 88.2012 73.4306C87.9704 73.5229 87.7396 73.5691 87.4858 73.5691C87.3242 73.5691 87.1627 73.546 87.0012 73.5229C86.8627 73.4998 86.7242 73.4306 86.6088 73.3383C86.4935 73.246 86.4012 73.1537 86.355 73.0152C86.2858 72.8768 86.2627 72.6921 86.2627 72.5306C86.2627 72.346 86.2858 72.1844 86.3781 72.0229C86.4473 71.8844 86.5396 71.7921 86.655 71.6998C86.7704 71.6075 86.9089 71.5614 87.0473 71.5152C87.1858 71.4691 87.3473 71.4229 87.5089 71.3998C87.6704 71.3768 87.8319 71.3537 87.9935 71.3306C88.1319 71.3075 88.2704 71.2845 88.3858 71.2614C88.4781 71.2383 88.5704 71.1921 88.6627 71.1229C88.7319 71.0537 88.7781 70.9614 88.755 70.8691C88.755 70.7537 88.7319 70.6383 88.6858 70.546C88.6396 70.4768 88.5704 70.4075 88.5012 70.3614C88.4089 70.3152 88.3396 70.2921 88.2473 70.2691C88.155 70.246 88.0627 70.246 87.9473 70.246C87.7165 70.246 87.5089 70.2921 87.3012 70.3844C87.1165 70.4998 87.0012 70.7075 87.0242 70.9383H86.4242C86.4242 70.7306 86.4704 70.546 86.5627 70.3614C86.655 70.1998 86.7704 70.0844 86.9089 69.9691C87.0704 69.8768 87.2319 69.8075 87.3935 69.7614C87.5781 69.7152 87.7858 69.6921 87.9704 69.6921C88.1319 69.6921 88.2935 69.7152 88.455 69.7383C88.6165 69.7614 88.755 69.8075 88.8935 69.8768C89.0319 69.946 89.1473 70.0614 89.2165 70.1998C89.3089 70.3614 89.355 70.546 89.3319 70.7306V72.6229C89.3319 72.7383 89.3319 72.8306 89.355 72.946C89.3781 73.0152 89.4242 73.0383 89.5165 73.0383C89.5858 73.0383 89.655 73.0152 89.7012 72.9921V73.4768H89.7242ZM88.7319 71.5844C88.6627 71.6306 88.5935 71.6537 88.5242 71.6768C88.4319 71.6998 88.3396 71.7229 88.2473 71.746C88.155 71.7691 88.0396 71.7691 87.9473 71.7921C87.855 71.8152 87.7396 71.8152 87.6242 71.8383C87.5319 71.8614 87.4396 71.8844 87.3473 71.9075C87.255 71.9306 87.1858 71.9768 87.1165 72.0229C87.0473 72.0691 87.0012 72.1383 86.955 72.2075C86.9088 72.2998 86.8858 72.3921 86.8858 72.4844C86.8858 72.5768 86.9088 72.6691 86.955 72.7383C87.0012 72.8075 87.0473 72.8537 87.1165 72.8998C87.1858 72.946 87.255 72.9691 87.3473 72.9921C87.4396 73.0152 87.5319 73.0152 87.6242 73.0152C87.8089 73.0152 87.9704 72.9921 88.1319 72.9229C88.2704 72.8768 88.3858 72.8075 88.4781 72.7152C88.5704 72.646 88.6396 72.5537 88.6858 72.4383C88.7319 72.346 88.755 72.2537 88.755 72.1614L88.7319 71.5844Z" fill="#313131" fill-opacity="0.6"/>
<path d="M91.8467 69.7852H92.5852V70.316H91.8467V72.6236C91.8467 72.6698 91.8467 72.739 91.8698 72.7852C91.8698 72.8313 91.916 72.8544 91.939 72.8775C91.9852 72.9006 92.0314 72.9236 92.0775 72.9236C92.1467 72.9236 92.239 72.9467 92.3083 72.9236H92.5852V73.4544H92.1237C91.9852 73.4544 91.8467 73.4544 91.7083 73.4313C91.616 73.4083 91.5237 73.3852 91.4314 73.316C91.3621 73.2467 91.316 73.1775 91.2698 73.0852C91.2237 72.9467 91.2237 72.8083 91.2237 72.6698V70.316H90.6006V69.7852H91.2237V68.6775H91.8237V69.7852H91.8467Z" fill="#313131" fill-opacity="0.6"/>
<path d="M94.2237 70.3388H93.6006V69.8081H94.2237V69.2542C94.2006 69.0004 94.2929 68.7465 94.4775 68.5619C94.6852 68.4004 94.9621 68.3081 95.2391 68.3311C95.3083 68.3311 95.3775 68.3311 95.4467 68.3542C95.516 68.3542 95.5852 68.3773 95.6544 68.4004V68.9311C95.6083 68.9081 95.539 68.9081 95.4929 68.885C95.4467 68.885 95.3775 68.885 95.3314 68.885C95.216 68.885 95.1006 68.9081 94.9852 68.9773C94.8929 69.0696 94.8467 69.185 94.8698 69.3004V69.8081H95.5852V70.3388H94.8698V73.5004H94.2698L94.2237 70.3388Z" fill="#313131" fill-opacity="0.6"/>
<path d="M96.6006 71.6545C96.6006 71.4007 96.6467 71.1468 96.716 70.893C96.7852 70.6622 96.9006 70.4545 97.0621 70.2699C97.2237 70.0853 97.4083 69.9468 97.616 69.8545C98.1237 69.6468 98.6775 69.6468 99.1621 69.8545C99.3698 69.9468 99.5775 70.0853 99.7391 70.2699C99.9006 70.4545 100.016 70.6622 100.085 70.893C100.154 71.1468 100.201 71.4007 100.201 71.6545C100.201 71.9083 100.154 72.1622 100.085 72.416C100.016 72.6468 99.9006 72.8545 99.7391 73.016C99.5775 73.2007 99.3929 73.3391 99.1621 73.4314C98.6544 73.6391 98.1006 73.6391 97.616 73.4314C97.4083 73.3391 97.2006 73.2007 97.0621 73.016C96.9006 72.8314 96.7852 72.6237 96.716 72.416C96.6467 72.1622 96.6006 71.9083 96.6006 71.6545ZM97.2467 71.6545C97.2467 71.8622 97.2698 72.0699 97.339 72.2545C97.3852 72.416 97.4775 72.5545 97.5929 72.693C97.6852 72.8083 97.8237 72.9007 97.9621 72.9699C98.239 73.0853 98.5621 73.0853 98.8621 72.9699C99.0006 72.9007 99.139 72.8083 99.2314 72.693C99.3467 72.5776 99.416 72.416 99.4852 72.2545C99.6006 71.8622 99.6006 71.4468 99.4852 71.0545C99.4391 70.893 99.3467 70.7314 99.2314 70.616C99.139 70.5007 99.0006 70.4083 98.8621 70.3391C98.5852 70.2237 98.2621 70.2237 97.9621 70.3391C97.8237 70.4083 97.6852 70.5007 97.5929 70.616C97.4775 70.7545 97.4083 70.893 97.339 71.0545C97.2698 71.2391 97.2467 71.4468 97.2467 71.6545Z" fill="#313131" fill-opacity="0.6"/>
<path d="M101.609 69.7854H102.186V70.57H102.209C102.325 70.2931 102.509 70.0854 102.763 69.9007C103.017 69.7392 103.294 69.67 103.571 69.693V70.3392C103.363 70.3392 103.156 70.3623 102.948 70.4315C102.786 70.5007 102.648 70.593 102.532 70.7315C102.417 70.87 102.348 71.0315 102.302 71.193C102.256 71.4007 102.232 71.6084 102.232 71.8161V73.4546H101.632V69.7854H101.609Z" fill="#313131" fill-opacity="0.6"/>
<path d="M104.725 69.7848H105.302V70.3387H105.325C105.717 69.7387 106.502 69.531 107.148 69.854C107.332 69.9463 107.471 70.131 107.54 70.3387C107.655 70.154 107.84 69.9925 108.025 69.8771C108.232 69.7617 108.463 69.7156 108.694 69.7156C108.855 69.7156 109.04 69.7387 109.202 69.7848C109.34 69.831 109.478 69.8771 109.594 69.9694C109.709 70.0617 109.778 70.1771 109.848 70.2925C109.917 70.454 109.94 70.6156 109.94 70.7771V73.5002H109.34V71.0771C109.34 70.9617 109.34 70.8694 109.317 70.754C109.294 70.6617 109.271 70.5694 109.202 70.5002C109.155 70.431 109.063 70.3617 108.971 70.3156C108.855 70.2694 108.74 70.2464 108.602 70.2464C108.348 70.2233 108.094 70.3156 107.909 70.5002C107.725 70.6848 107.632 70.9387 107.655 71.1925V73.5002H107.055V71.0771C107.055 70.9617 107.055 70.8463 107.032 70.754C107.009 70.6617 106.986 70.5694 106.917 70.5002C106.871 70.431 106.778 70.3617 106.709 70.3156C106.594 70.2694 106.478 70.2464 106.363 70.2464C106.202 70.2464 106.04 70.2694 105.902 70.3617C105.786 70.431 105.694 70.5233 105.602 70.6156C105.532 70.7079 105.463 70.8233 105.417 70.9387C105.394 71.031 105.371 71.1233 105.371 71.2156V73.5233H104.771L104.725 69.7848Z" fill="#313131" fill-opacity="0.6"/>
<path d="M1.27025 47.1001C1.27025 47.6078 1.40871 48.0924 1.68564 48.5078C2.14718 49.1771 2.95487 49.5232 4.10872 49.5232C4.59333 49.5232 5.07795 49.454 5.53949 49.3155C6.37026 49.0386 6.78564 48.5078 6.78564 47.7694C6.78564 47.2155 6.60103 46.8232 6.25487 46.5694C5.74718 46.2694 5.17025 46.0617 4.59333 45.9694L3.20871 45.6463C2.30871 45.4386 1.66256 45.2078 1.29333 44.9771C0.647174 44.5617 0.277943 43.8232 0.324097 43.0617C0.30102 42.2078 0.647174 41.3771 1.27025 40.8001C1.91641 40.2001 2.81641 39.9232 3.97025 39.9232C4.93949 39.9001 5.88564 40.1771 6.69333 40.7078C7.45487 41.2155 7.8241 42.0463 7.8241 43.2001H6.53179C6.50872 42.7386 6.34718 42.3001 6.09333 41.9309C5.67795 41.4001 4.96256 41.1232 3.94718 41.1232C3.13948 41.1232 2.53948 41.2847 2.19333 41.6309C1.84717 41.9309 1.66256 42.3694 1.66256 42.8309C1.63948 43.2924 1.87025 43.7309 2.28564 43.9386C2.56256 44.0771 3.18564 44.2617 4.15487 44.4924L5.58564 44.8155C6.16256 44.9309 6.69333 45.1386 7.17795 45.4617C7.8241 45.9463 8.14718 46.6386 8.14718 47.5386C8.14718 48.6694 7.7318 49.4771 6.90103 49.9617C6.0241 50.4694 5.03179 50.7232 4.03948 50.7001C2.77025 50.7001 1.77794 50.3771 1.06256 49.7309C0.347173 49.0847 -0.0220577 48.2078 0.00101928 47.1001H1.27025Z" fill="#EEA820"/>
<path d="M22.5925 41.6306C23.2617 42.5306 23.6079 43.6844 23.6079 45.0921C23.6079 46.6152 23.2156 47.8844 22.454 48.8998C21.5309 50.0998 20.2386 50.6998 18.554 50.6998C16.9848 50.6998 15.7386 50.169 14.8386 49.1305C14.0309 48.1382 13.6386 46.869 13.6386 45.3229C13.5925 44.0536 13.9617 42.8306 14.6771 41.769C15.554 40.4998 16.8694 39.8767 18.6002 39.8767C20.3771 39.8998 21.7156 40.4767 22.5925 41.6306ZM21.3694 48.1613C21.9232 47.2613 22.2002 46.1998 22.1771 45.1382C22.1771 43.9382 21.854 42.969 21.2309 42.2306C20.6079 41.4921 19.7309 41.1229 18.6463 41.1229C17.654 41.0998 16.7079 41.4921 16.0617 42.2075C15.3925 42.9459 15.0694 44.0075 15.0694 45.4152C15.0463 46.4306 15.3463 47.4459 15.9232 48.2767C16.5002 49.0613 17.4232 49.4536 18.7156 49.4536C19.9386 49.4536 20.8156 49.0382 21.3694 48.1613Z" fill="#EEA820"/>
<path d="M31.0399 40.1772V46.5003C31.0168 47.1465 31.1553 47.7696 31.4553 48.3465C31.8707 49.0849 32.563 49.4542 33.5553 49.4542C34.7322 49.4542 35.5168 49.0619 35.9553 48.2542C36.2091 47.7003 36.3245 47.1003 36.3014 46.5003V40.1772H37.7091V45.9234C37.7091 47.1926 37.5476 48.1619 37.2014 48.8311C36.5784 50.0542 35.4014 50.6772 33.6707 50.6772C31.9399 50.6772 30.763 50.0542 30.163 48.8311C29.8168 48.1619 29.6553 47.1926 29.6553 45.9234V40.1772H31.0399Z" fill="#EEA820"/>
<path d="M44.0781 40.1772H46.0627L48.9935 48.8311L51.9243 40.1772H53.8858V50.4003H52.5704V44.3542C52.5704 44.1465 52.5704 43.8003 52.5935 43.3157C52.6166 42.8311 52.6166 42.3234 52.6166 41.7696L49.7089 50.4003H48.3243L45.3935 41.7696V42.0926C45.3935 42.3465 45.3935 42.7157 45.4166 43.2465C45.4397 43.7772 45.4397 44.1465 45.4397 44.3772V50.4234H44.0781V40.1772Z" fill="#EEA820"/>
<path d="M67.7085 40.1775V41.4006H64.27V50.4006H62.8623V41.4006H59.4238V40.1775H67.7085Z" fill="#EEA820"/>
<path d="M73.3848 40.1775H80.8386V41.4236H74.7232V44.539H80.3771V45.7159H74.7232V49.1775H80.9309V50.4006H73.3848V40.1775Z" fill="#EEA820"/>
<path d="M94.3629 40.9158C95.0321 41.5158 95.4706 42.3466 95.5629 43.2466H94.2013C94.0859 42.6466 93.7398 42.0927 93.2783 41.6773C92.8167 41.285 92.1706 41.1004 91.3629 41.1004C90.4398 41.0773 89.5398 41.4696 88.9167 42.1619C88.2936 42.8773 87.9936 43.9619 87.9936 45.4158C87.9936 46.6158 88.2706 47.585 88.8244 48.3235C89.3782 49.0619 90.209 49.4312 91.3398 49.4312C92.2629 49.4773 93.1629 49.0389 93.6706 48.2542C93.9936 47.7466 94.2013 47.2158 94.2936 46.6158H95.6552C95.5629 47.6312 95.1475 48.5773 94.4552 49.3158C93.6475 50.1927 92.5398 50.6312 91.1782 50.6312C90.0706 50.6542 89.009 50.285 88.1782 49.5466C87.1167 48.6004 86.5859 47.1235 86.5859 45.1389C86.5859 43.6389 86.9782 42.3927 87.7859 41.4235C88.6398 40.385 89.8398 39.8542 91.3629 39.8542C92.6552 39.9004 93.6475 40.2466 94.3629 40.9158Z" fill="#EEA820"/>
<path d="M101.654 40.1772H103.062V44.4003H108.37V40.1772H109.777V50.4003H108.37V45.6234H103.062V50.4003H101.654V40.1772Z" fill="#EEA820"/>
<path d="M25.7783 20.9077V24.8308H9.73987C3.27832 24.8308 0.27832 21.6231 0.27832 15.7154V10.1077H4.2014V15.3C4.2014 19.2692 6.64756 20.9077 10.5706 20.9077H18.3706V0H22.2706V20.9077H25.7783ZM15.0937 10.2923H8.3091V6.53077C8.3091 4.38461 9.64756 3 11.7937 3H13.986V5.26154H12.0245C11.2629 5.26154 10.8014 5.7 10.8014 6.41538V7.26923H15.0937V10.2923Z" fill="#171D5B"/>
<path d="M39.347 24.8308H25.1777V20.9077H30.0239V7.54615H33.9239V20.9308H39.3701L39.347 24.8308ZM26.5854 2.23846C26.5854 0.923077 27.67 0 29.0316 0C30.3931 0 31.4777 0.923077 31.4777 2.23846C31.4777 3.71538 30.347 4.47692 29.0316 4.47692C27.7162 4.47692 26.5854 3.71538 26.5854 2.23846ZM32.7008 2.23846C32.7008 0.923077 33.7624 0 35.147 0C36.5316 0 37.5931 0.923077 37.5931 2.23846C37.5931 3.71538 36.4624 4.47692 35.147 4.47692C33.8316 4.47692 32.7008 3.71538 32.7008 2.23846Z" fill="#171D5B"/>
<path d="M58.4779 19.0161V19.0392C58.4779 24.5315 55.0163 28.2007 49.8471 28.2007H49.824C46.8009 28.2007 44.3548 26.9545 42.8548 24.8315H38.7471V20.9084H41.3086C41.2163 20.2853 41.1471 19.6622 41.1471 19.0392V19.0161C41.1471 13.3853 44.6086 9.62378 49.8009 9.62378H49.824C55.0163 9.62378 58.4779 13.3853 58.4779 19.0161ZM54.5779 18.9238C54.5779 15.6699 52.6855 13.5469 49.8471 13.5469H49.824C46.9855 13.5469 45.0471 15.693 45.0471 18.9238V18.9469C45.0471 22.1545 46.9855 24.2776 49.824 24.2776H49.8471C52.6855 24.2776 54.6009 22.1315 54.6009 18.9469L54.5779 18.9238Z" fill="#171D5B"/>
<path d="M109.847 7.33911V16.4545C109.847 22.2468 107.286 25.1083 101.817 25.1083C98.886 25.1083 96.4859 23.816 95.5167 21.6237C94.3167 23.6545 92.1706 24.8083 89.2398 24.8083H79.0859V20.8853H82.8475V9.62373H86.7475V20.9083H89.2167C91.4783 20.9083 93.8321 19.7776 93.8321 16.5699V9.62373H97.7552V17.1237C97.7552 19.6622 99.3706 21.2314 101.817 21.2314C104.378 21.2314 105.924 19.7545 105.924 16.893V7.33911H109.847Z" fill="#171D5B"/>
<path d="M77.1931 6.41504H72.9238V10.6843H77.1931V6.41504Z" fill="#EEA820"/>
<path d="M76.0855 20.9079V12.7618H72.1625V20.9079H70.4086C67.2471 20.9079 64.9163 19.131 64.9163 16.2233V16.2002C64.9163 13.2002 67.224 11.4233 70.4086 11.4233H70.8471V7.54639C65.0548 7.70793 61.2471 11.1002 61.2471 16.2002V16.2233C61.2471 21.3925 65.0778 24.831 70.7317 24.831H72.1625C72.1163 26.1002 71.5625 26.8387 70.6855 27.2541C69.9702 27.5541 69.2086 27.6695 68.424 27.6464C66.6702 27.6233 64.9394 27.3464 63.2778 26.8156L64.0855 30.9464C65.5394 31.3618 67.0625 31.5695 68.5855 31.5695C72.6471 31.5695 75.0932 30.3464 75.8317 26.6541C75.9471 26.0541 76.0394 25.431 76.0625 24.831H79.7086V20.9079H76.0855Z" fill="#171D5B"/>
</svg>
